<?xml version="1.0" standalone="no"?>
<!DOCTYPE svg PUBLIC "-//W3C//DTD SVG 20010904//EN"
 "http://www.w3.org/TR/2001/REC-SVG-20010904/DTD/svg10.dtd">
<svg version="1.0" xmlns="http://www.w3.org/2000/svg"
 width="2745.000000pt" height="2745.000000pt" viewBox="0 0 2745.000000 2745.000000"
 preserveAspectRatio="xMidYMid meet">
<metadata>
Created by potrace 1.11, written by Peter Selinger 2001-2013
</metadata>
<g transform="translate(0.000000,2745.000000) scale(0.100000,-0.100000)"
fill="#000000" stroke="none">
<path d="M13165 27404 c-33 -2 -145 -9 -250 -15 -104 -6 -198 -11 -208 -11 -9
0 -16 -2 -13 -6 2 -4 -28 -7 -67 -8 -40 0 -99 -3 -132 -7 -33 -4 -95 -10 -139
-12 -43 -3 -83 -8 -89 -12 -6 -3 -27 -7 -46 -8 -20 -1 -54 -6 -76 -12 -22 -5
-52 -6 -67 -2 -16 4 -30 4 -33 -1 -3 -5 -16 -7 -30 -6 -13 2 -22 0 -20 -4 3
-5 -2 -11 -11 -14 -10 -4 -13 -2 -8 7 6 9 4 9 -8 -1 -11 -9 -18 -10 -23 -2 -4
7 -12 7 -26 0 -14 -8 -19 -7 -19 1 0 8 -4 9 -13 0 -10 -8 -17 -7 -25 1 -8 8
-12 8 -12 1 0 -13 -32 -12 -42 2 -4 6 -8 2 -8 -7 0 -10 -5 -18 -11 -18 -5 0
-8 4 -5 8 3 5 -1 9 -9 9 -8 0 -12 -4 -10 -8 3 -4 -3 -10 -12 -13 -9 -4 -20 -1
-24 6 -5 8 -12 9 -21 2 -7 -6 -25 -10 -40 -9 -16 0 -28 -3 -28 -8 0 -4 -4 -5
-10 -2 -12 7 -53 -19 -44 -28 4 -4 -7 -2 -24 2 -21 7 -33 6 -36 -2 -5 -9 -8
-9 -12 0 -4 9 -11 10 -24 3 -13 -7 -20 -6 -23 3 -3 7 -6 8 -6 1 -1 -6 -12 -9
-25 -7 -13 3 -27 0 -30 -6 -4 -5 -13 -8 -21 -5 -9 4 -18 -1 -22 -11 -6 -17 -7
-17 -21 1 -14 18 -14 18 -9 -3 4 -19 2 -21 -19 -13 -13 5 -24 6 -24 2 0 -4 -9
-8 -20 -9 -11 -1 -20 4 -20 10 0 7 -4 6 -10 -3 -8 -12 -10 -12 -10 -1 0 11 -3
11 -15 1 -8 -7 -24 -10 -34 -7 -14 3 -18 1 -14 -9 4 -10 0 -12 -11 -8 -9 3
-16 2 -16 -3 0 -5 -10 -9 -22 -8 -13 1 -27 -3 -31 -9 -6 -8 -10 -8 -13 1 -7
16 -34 4 -34 -15 0 -13 -3 -12 -15 4 -8 10 -15 14 -15 8 0 -7 -7 -15 -16 -18
-10 -4 -13 -2 -8 7 5 8 2 7 -9 -2 -9 -7 -17 -10 -17 -5 0 4 -5 3 -12 -4 -8 -8
-17 -8 -31 -1 -12 7 -17 7 -13 1 3 -5 -1 -13 -10 -16 -22 -9 -26 -8 -18 5 4 7
-3 6 -17 -2 -13 -7 -26 -11 -29 -10 -3 2 -13 7 -24 13 -13 7 -16 7 -12 -1 4
-6 2 -11 -4 -11 -6 0 -8 -5 -4 -12 5 -8 0 -7 -11 2 -13 11 -19 12 -22 3 -2 -7
-11 -9 -19 -6 -8 3 -14 1 -14 -5 0 -5 -7 -13 -16 -16 -14 -5 -15 -4 -5 8 10
12 9 14 -8 9 -12 -3 -19 -8 -17 -12 2 -3 -2 -12 -10 -19 -10 -9 -14 -9 -14 -1
0 8 -4 8 -15 -1 -12 -10 -15 -10 -15 1 0 11 -2 11 -10 -1 -5 -8 -10 -11 -10
-6 0 5 -6 3 -14 -3 -11 -9 -16 -9 -22 0 -5 8 -3 9 6 4 9 -5 11 -4 6 4 -4 6
-12 9 -17 5 -5 -3 -7 -9 -4 -14 2 -4 -6 -10 -20 -12 -13 -3 -26 0 -29 6 -2 6
-5 3 -5 -7 -1 -11 -6 -15 -12 -11 -6 3 -15 0 -20 -7 -7 -11 -9 -11 -9 -1 0 10
-5 10 -21 2 -11 -7 -27 -9 -35 -6 -8 3 -12 2 -9 -3 3 -5 1 -12 -5 -16 -5 -3
-10 -1 -10 6 0 9 -3 9 -14 0 -11 -9 -15 -9 -19 1 -4 9 -6 7 -6 -4 -1 -22 -17
-32 -27 -17 -5 8 -3 9 6 4 9 -6 11 -4 6 4 -6 9 -12 8 -26 -4 -11 -10 -20 -12
-24 -6 -8 12 -36 3 -54 -18 -12 -14 -13 -14 -8 1 3 12 1 15 -10 11 -7 -3 -14
-9 -14 -13 0 -5 -8 -7 -17 -6 -10 2 -24 -4 -31 -13 -8 -9 -11 -10 -7 -3 8 15
-11 16 -21 1 -4 -8 -9 -7 -15 2 -6 10 -9 10 -9 2 0 -7 -10 -18 -22 -24 -21
-11 -22 -11 -10 4 11 13 10 15 -7 10 -12 -3 -19 -8 -17 -12 2 -3 -2 -12 -10
-19 -10 -9 -14 -9 -14 -1 0 8 -4 8 -15 -1 -12 -10 -15 -10 -15 1 0 12 -2 12
-9 1 -4 -8 -11 -13 -15 -13 -3 1 -9 0 -13 0 -5 -1 -16 0 -26 1 -11 1 -21 -7
-24 -19 -5 -20 -6 -21 -20 -4 -8 10 -12 13 -9 7 3 -7 -1 -15 -10 -18 -10 -4
-13 -2 -8 6 5 7 3 8 -5 4 -7 -5 -10 -15 -7 -25 5 -13 4 -13 -8 2 -10 13 -15
14 -18 5 -3 -7 -18 -12 -36 -10 -20 1 -32 -2 -32 -10 0 -8 -3 -9 -8 -3 -4 6
-13 11 -21 13 -12 3 -12 1 0 -14 9 -12 9 -15 2 -10 -7 4 -19 4 -25 -1 -7 -4
-19 -8 -27 -10 -8 -1 -18 -7 -22 -15 -6 -9 -10 -8 -15 5 -6 17 -8 16 -21 -3
-9 -12 -21 -19 -30 -16 -8 4 -11 2 -7 -5 4 -8 -1 -9 -16 -4 -13 4 -20 3 -17
-2 4 -5 0 -10 -8 -10 -8 0 -15 4 -15 8 0 5 -7 6 -15 3 -8 -4 -13 -10 -10 -14
3 -5 0 -12 -6 -16 -7 -4 -9 -3 -5 4 13 21 -19 18 -43 -4 -18 -17 -32 -21 -53
-17 -22 4 -28 2 -28 -11 0 -10 -5 -14 -10 -11 -6 4 -7 12 -4 18 4 7 -10 -4
-31 -23 -21 -19 -35 -29 -31 -22 4 6 2 12 -4 12 -6 0 -8 5 -4 12 4 7 3 8 -4 4
-6 -4 -9 -13 -6 -20 3 -8 0 -17 -7 -22 -8 -5 -10 -3 -4 7 8 12 6 12 -8 0 -14
-11 -17 -11 -17 0 -1 10 -4 8 -11 -3 -5 -10 -15 -18 -20 -18 -6 0 -7 5 -3 11
4 8 0 8 -15 0 -11 -7 -21 -17 -21 -23 0 -6 -6 -5 -17 3 -9 8 -14 9 -10 3 4 -7
0 -15 -9 -18 -24 -9 -36 -7 -28 6 5 7 3 8 -5 4 -7 -5 -10 -15 -6 -25 5 -12 4
-13 -6 -4 -9 9 -18 9 -31 2 -11 -6 -22 -8 -25 -5 -9 8 -43 -13 -43 -27 0 -7
-10 -13 -22 -14 -11 -1 -24 -7 -28 -14 -6 -8 -9 -8 -13 2 -4 12 -7 11 -16 -1
-10 -13 -12 -13 -21 0 -8 13 -10 13 -10 -1 0 -11 -8 -15 -26 -13 -19 2 -24 -1
-20 -12 3 -9 1 -12 -4 -9 -6 3 -10 0 -10 -7 0 -9 -3 -9 -10 2 -5 8 -10 10 -10
4 0 -7 -7 -14 -14 -17 -11 -4 -13 -1 -9 11 3 11 -1 8 -11 -6 -10 -12 -22 -20
-27 -17 -5 4 -9 2 -9 -4 0 -6 -7 -7 -17 -4 -12 5 -14 3 -8 -7 6 -10 3 -12 -14
-7 -17 4 -20 2 -12 -7 8 -9 3 -12 -20 -10 -24 2 -29 -1 -24 -14 5 -12 1 -12
-15 3 -12 11 -21 15 -20 10 6 -29 0 -36 -21 -24 -12 6 -19 7 -16 2 3 -4 -6
-16 -18 -26 -17 -12 -26 -14 -31 -5 -4 6 -3 8 4 4 6 -3 13 -2 16 3 5 8 -15 8
-34 1 -3 -1 -9 -2 -14 -1 -5 1 -4 -5 4 -13 13 -17 11 -18 -33 -18 -19 -1 -26
-5 -23 -14 3 -8 0 -11 -9 -7 -8 3 -12 10 -8 16 3 6 1 7 -5 3 -7 -4 -12 -13
-12 -20 0 -8 -10 -12 -25 -10 -22 2 -25 -1 -19 -19 6 -22 6 -22 -11 -2 -9 11
-13 14 -9 6 5 -11 2 -13 -14 -9 -14 4 -20 2 -15 -5 4 -6 -2 -8 -17 -4 -16 4
-23 1 -27 -14 -3 -10 -10 -19 -15 -19 -5 0 -6 5 -3 10 3 6 1 10 -4 10 -6 0
-11 -5 -11 -11 0 -5 -4 -7 -10 -4 -6 4 -7 -1 -3 -12 6 -15 4 -16 -9 -5 -13 10
-18 9 -29 -4 -11 -13 -10 -17 2 -25 8 -5 10 -9 5 -9 -5 0 -18 8 -29 18 -13 10
-17 11 -12 3 6 -11 4 -13 -9 -8 -14 6 -17 3 -12 -8 5 -13 2 -14 -15 -4 -12 6
-19 7 -15 1 3 -5 -2 -16 -11 -23 -9 -8 -14 -9 -10 -3 4 7 0 14 -8 18 -8 3 -17
0 -21 -6 -4 -7 -3 -8 4 -4 7 4 12 1 12 -8 0 -9 -7 -13 -20 -11 -14 3 -20 -2
-20 -13 0 -15 -2 -15 -10 -2 -9 14 -14 7 -11 -13 1 -4 -8 -3 -19 3 -15 8 -18
8 -14 -3 3 -8 -6 -18 -21 -25 -16 -8 -25 -8 -25 -1 0 6 -5 7 -10 4 -6 -4 -8
-10 -5 -15 3 -4 -4 -6 -15 -3 -11 3 -20 1 -20 -5 0 -5 -7 -13 -16 -16 -8 -3
-13 -2 -10 2 3 5 -1 9 -8 9 -9 0 -12 -7 -8 -15 4 -11 1 -14 -12 -9 -10 4 -15
3 -11 -3 3 -5 -13 -14 -35 -21 -22 -7 -40 -16 -40 -20 0 -5 -6 -6 -14 -3 -8 3
-17 0 -22 -7 -5 -8 -3 -10 7 -4 12 7 12 6 1 -7 -8 -9 -19 -15 -27 -12 -7 3
-16 1 -19 -5 -4 -6 -14 -7 -23 -4 -12 5 -15 2 -10 -10 3 -9 1 -19 -5 -23 -7
-4 -8 -3 -4 4 5 8 -2 12 -18 12 -14 0 -26 -5 -26 -11 0 -5 6 -7 13 -3 7 4 9 3
4 -2 -5 -5 -12 -9 -15 -9 -4 -1 -18 -7 -31 -14 -13 -7 -21 -9 -18 -4 4 5 0 10
-7 10 -9 0 -12 -7 -8 -15 4 -11 1 -14 -12 -9 -10 4 -15 3 -11 -3 3 -5 -13 -14
-35 -21 -22 -7 -40 -16 -40 -20 0 -5 -6 -6 -14 -3 -8 3 -17 0 -22 -7 -5 -8 -3
-10 6 -4 8 5 11 4 6 -3 -4 -6 -13 -9 -21 -5 -9 3 -22 0 -30 -7 -8 -6 -20 -8
-27 -4 -10 6 -11 5 -1 -8 11 -12 9 -17 -12 -26 -14 -6 -25 -15 -25 -20 0 -4
-10 -8 -22 -9 -11 -1 -25 -8 -29 -15 -7 -10 -9 -10 -9 0 0 6 -4 12 -10 12 -5
0 -6 -8 -3 -17 6 -15 4 -16 -9 -5 -13 10 -18 10 -24 1 -5 -8 -3 -10 7 -5 8 4
5 0 -6 -9 -11 -9 -28 -14 -38 -11 -9 2 -15 0 -11 -5 3 -5 0 -9 -6 -9 -6 0 -9
-4 -5 -9 3 -5 1 -12 -4 -15 -5 -4 -13 -1 -17 5 -5 8 -3 9 6 4 9 -5 11 -4 6 4
-4 6 -12 9 -17 5 -6 -3 -8 -8 -5 -11 5 -6 -18 -33 -29 -33 -3 0 -3 6 0 13 4 6
0 4 -9 -7 -9 -11 -22 -16 -31 -12 -12 4 -18 0 -22 -13 -6 -22 -29 -34 -46 -24
-7 4 -8 0 -3 -12 6 -16 4 -16 -11 -4 -11 9 -14 10 -9 2 7 -13 -4 -17 -31 -14
-7 1 -13 -8 -13 -20 0 -22 0 -22 -16 -3 -8 10 -13 13 -9 7 3 -7 1 -13 -4 -13
-6 0 -10 -3 -10 -7 3 -20 -2 -26 -11 -13 -8 13 -10 13 -10 -2 0 -12 -5 -15
-17 -11 -11 4 -14 3 -9 -5 5 -8 -1 -12 -16 -12 -13 0 -34 -10 -48 -21 -14 -11
-19 -17 -11 -13 10 5 12 3 7 -5 -4 -6 -16 -9 -26 -6 -10 3 -22 0 -26 -6 -4 -7
-3 -9 3 -6 6 4 13 0 16 -8 4 -9 1 -12 -9 -8 -8 3 -27 -5 -41 -18 -14 -13 -23
-19 -19 -12 3 6 2 14 -3 17 -5 3 -11 -4 -14 -15 -4 -15 -11 -20 -21 -16 -9 4
-16 2 -16 -4 0 -6 -5 -7 -12 -3 -8 5 -9 2 -5 -9 3 -9 1 -19 -5 -23 -7 -5 -8
-2 -3 6 5 8 3 11 -6 8 -8 -3 -13 -10 -12 -15 1 -5 -4 -10 -12 -10 -11 0 -12 5
-4 21 10 20 10 20 -5 2 -8 -10 -17 -23 -18 -28 -2 -5 -12 -10 -23 -12 -11 -2
-20 -10 -19 -18 1 -8 -9 -15 -25 -16 -14 -1 -31 -9 -38 -18 -7 -10 -19 -14
-29 -10 -12 4 -15 2 -11 -9 4 -8 2 -17 -3 -20 -6 -4 -10 0 -11 7 0 7 -5 1 -11
-14 -8 -24 -12 -26 -30 -17 -15 8 -19 8 -14 0 4 -6 0 -14 -8 -17 -9 -3 -13
-11 -9 -17 3 -6 1 -7 -5 -3 -7 4 -12 2 -12 -5 0 -6 -8 -9 -20 -6 -13 3 -18 1
-13 -6 4 -6 0 -8 -10 -4 -11 4 -15 1 -12 -12 2 -14 -2 -17 -21 -15 -13 1 -22
-2 -18 -7 5 -9 -10 -13 -30 -10 -5 1 -3 -6 5 -15 13 -16 12 -16 -10 -5 -15 8
-21 9 -17 2 4 -6 2 -11 -4 -11 -6 0 -8 -5 -4 -12 6 -10 5 -10 -8 0 -13 10 -15
9 -13 -13 2 -14 -1 -23 -6 -19 -5 3 -7 9 -5 13 3 4 -1 8 -9 8 -8 0 -13 -5 -12
-11 1 -6 -6 -10 -16 -10 -15 2 -16 -1 -5 -14 8 -9 8 -13 2 -9 -7 4 -15 0 -18
-9 -5 -14 -9 -14 -23 -3 -12 10 -14 10 -9 2 4 -8 2 -13 -4 -13 -6 0 -9 -4 -5
-9 3 -5 1 -12 -4 -15 -5 -4 -13 -1 -17 5 -5 8 -3 9 6 4 9 -5 11 -4 6 4 -11 17
-66 -25 -66 -50 0 -10 -5 -19 -11 -19 -5 0 -8 4 -5 8 3 5 -1 9 -8 9 -8 0 -12
-6 -9 -13 2 -6 -1 -15 -8 -20 -8 -5 -10 -3 -4 6 5 9 4 11 -3 6 -7 -4 -12 -15
-12 -24 0 -10 -3 -13 -8 -7 -9 13 -27 13 -39 1 -4 -5 -3 -6 3 -3 7 4 17 0 23
-7 10 -12 8 -13 -10 -9 -14 4 -25 0 -31 -11 -5 -9 -14 -16 -19 -16 -6 0 -7 6
-3 13 4 6 -2 3 -15 -7 -12 -11 -19 -26 -16 -34 5 -13 3 -13 -12 -1 -10 7 -15
10 -11 5 9 -11 -19 -39 -32 -31 -5 3 -10 -1 -10 -10 0 -9 -6 -15 -12 -14 -26
3 -36 -1 -42 -18 -6 -15 -4 -15 14 2 11 10 20 14 20 8 0 -5 -12 -16 -27 -24
-16 -8 -34 -21 -41 -29 -8 -8 -11 -10 -8 -5 2 6 -4 11 -14 11 -10 0 -18 -3
-18 -6 2 -25 -19 -52 -44 -57 -21 -4 -26 -8 -16 -14 10 -7 9 -9 -4 -10 -10 -1
-23 -2 -30 -3 -6 0 -12 -11 -13 -23 -1 -13 -5 -26 -10 -30 -4 -5 -6 -1 -3 8 4
9 1 16 -8 16 -7 0 -11 -4 -8 -9 3 -4 0 -8 -6 -8 -6 0 -9 -3 -7 -7 2 -5 -8 -19
-22 -33 l-25 -25 16 26 c13 21 14 26 2 26 -8 0 -12 -3 -9 -5 9 -9 -17 -32 -29
-25 -6 4 -5 -1 3 -10 12 -15 12 -17 -4 -11 -13 5 -16 4 -11 -4 4 -7 1 -12 -7
-12 -8 0 -17 -7 -21 -15 -3 -8 -11 -15 -17 -15 -8 0 -7 6 2 18 12 15 12 16 -2
5 -9 -7 -20 -9 -25 -5 -5 4 0 -4 11 -17 11 -14 14 -21 8 -17 -8 4 -13 2 -13
-5 0 -9 -4 -9 -15 1 -12 10 -14 8 -10 -9 2 -11 -1 -24 -7 -27 -6 -4 -8 -3 -5
3 4 6 0 13 -7 16 -11 4 -13 0 -11 -15 4 -16 2 -19 -7 -10 -8 8 -17 5 -35 -14
-12 -14 -23 -30 -23 -36 0 -5 -7 -7 -16 -4 -10 4 -13 2 -8 -6 5 -8 2 -9 -11
-4 -15 5 -16 4 -5 -9 11 -13 10 -14 -4 -9 -15 6 -22 -10 -17 -39 1 -5 -3 -6
-8 -3 -5 4 -12 2 -16 -4 -3 -5 -11 -10 -17 -10 -5 0 0 8 12 18 18 15 20 19 7
19 -10 0 -15 -3 -12 -5 3 -3 -3 -11 -13 -18 -15 -12 -15 -15 -2 -24 8 -5 10
-10 4 -10 -5 0 -16 6 -23 13 -11 10 -13 10 -7 0 4 -7 2 -13 -4 -13 -6 0 -8 -5
-4 -12 5 -8 0 -9 -15 -5 -19 5 -21 2 -15 -16 6 -19 5 -20 -8 -9 -13 10 -15 8
-13 -13 3 -22 1 -24 -17 -14 -16 9 -20 7 -25 -11 -4 -13 -11 -19 -20 -16 -9 4
-11 2 -7 -6 5 -8 2 -9 -11 -4 -16 6 -16 4 -4 -11 9 -11 10 -14 1 -9 -7 4 -15
1 -18 -8 -3 -9 -10 -16 -15 -16 -6 0 -5 10 1 23 11 21 10 21 -4 3 -12 -15 -13
-23 -4 -35 7 -9 9 -13 4 -9 -5 4 -18 -7 -30 -25 -16 -24 -29 -32 -49 -31 -20
1 -27 -3 -25 -15 2 -9 -3 -15 -10 -13 -6 1 -12 -6 -12 -15 0 -10 -4 -14 -8 -8
-4 6 -13 11 -21 13 -12 3 -12 1 0 -14 13 -16 12 -17 -5 -11 -17 7 -17 6 -5
-10 9 -11 10 -14 1 -9 -7 4 -15 1 -18 -8 -3 -9 -12 -16 -19 -16 -7 0 -18 -7
-25 -15 -7 -8 -16 -13 -19 -10 -4 2 -8 -3 -8 -11 0 -11 6 -9 24 8 30 28 30 16
-1 -15 -21 -21 -25 -22 -35 -8 -7 10 -9 10 -5 2 5 -11 3 -13 -11 -7 -16 6 -16
4 -4 -11 12 -15 12 -16 -3 -11 -11 5 -18 0 -23 -15 -4 -12 -7 -24 -7 -27 0 -3
-8 -7 -19 -7 -28 -2 -51 -23 -45 -40 5 -11 1 -11 -15 -2 -12 6 -19 7 -15 1 3
-5 -3 -17 -13 -27 -11 -9 -18 -25 -16 -36 2 -11 0 -17 -6 -14 -5 4 -7 10 -4
15 3 5 1 11 -4 14 -5 4 -8 -4 -7 -17 2 -20 -1 -23 -21 -21 -13 1 -21 -2 -17
-7 3 -5 9 -7 14 -4 5 3 12 1 15 -5 4 -6 2 -9 -3 -8 -5 2 -23 -12 -39 -29 -17
-18 -36 -33 -42 -33 -8 0 -8 4 1 14 7 8 16 12 20 10 4 -2 9 0 12 5 9 13 -19 7
-38 -8 -13 -11 -14 -16 -4 -29 10 -13 10 -14 1 -8 -8 4 -13 2 -13 -6 0 -7 -16
-24 -35 -37 -30 -20 -33 -26 -23 -40 10 -13 8 -13 -7 1 -18 16 -20 16 -42 -8
-26 -28 -31 -43 -8 -24 9 7 18 10 21 7 5 -5 -37 -33 -43 -29 -12 8 -14 -1 -3
-9 12 -8 10 -10 -11 -6 -16 2 -26 -1 -26 -9 0 -7 4 -11 9 -8 4 3 8 0 8 -5 0
-6 -9 -11 -20 -11 -11 0 -20 -5 -20 -11 0 -5 6 -7 13 -4 6 4 3 -1 -7 -9 -11
-9 -25 -16 -30 -16 -6 0 -4 4 4 10 8 5 12 11 9 15 -3 3 -14 -3 -23 -14 -13
-14 -14 -21 -5 -27 8 -5 10 -3 4 6 -5 9 -4 11 4 6 12 -8 5 -29 -7 -23 -11 6
-41 -30 -34 -39 4 -5 0 -3 -10 4 -12 10 -18 10 -24 1 -4 -8 -3 -9 4 -5 7 4 12
2 12 -5 0 -6 -8 -9 -18 -7 -11 3 -19 0 -19 -8 0 -7 4 -11 9 -8 4 3 8 0 8 -6 0
-6 -8 -10 -17 -9 -32 3 -36 -1 -22 -18 8 -9 9 -14 3 -10 -7 4 -22 -8 -35 -28
-13 -19 -30 -35 -37 -35 -8 0 -10 -5 -6 -12 6 -10 5 -10 -8 0 -13 10 -18 9
-29 -4 -15 -19 -21 -47 -8 -38 5 3 7 8 5 12 -2 4 2 13 10 20 9 8 14 9 14 2 0
-14 -46 -60 -59 -60 -5 0 -13 -9 -16 -20 -3 -11 -14 -20 -23 -20 -14 0 -14 2
-3 9 7 5 12 13 10 19 -2 6 -13 -1 -23 -16 -11 -14 -14 -22 -8 -18 7 4 12 1 12
-9 0 -11 -5 -15 -16 -11 -8 3 -12 2 -9 -4 3 -6 0 -13 -8 -16 -9 -3 -13 -14
-10 -27 3 -13 1 -18 -4 -12 -4 6 -14 11 -22 13 -12 3 -12 1 -1 -13 9 -11 10
-19 4 -23 -6 -4 -16 -16 -23 -27 -9 -15 -11 -15 -7 -2 19 57 19 54 6 34 -6 -9
-16 -15 -21 -11 -6 3 -10 0 -8 -7 3 -28 -2 -54 -9 -44 -4 6 -13 11 -21 13 -12
3 -12 1 0 -14 13 -16 12 -17 -5 -10 -20 7 -20 7 0 -15 11 -13 13 -19 4 -14
-25 15 -43 15 -30 1 7 -10 6 -17 -7 -27 -17 -13 -17 -13 -3 6 14 20 14 20 -7
2 -13 -12 -19 -25 -16 -35 5 -12 2 -14 -12 -9 -16 7 -16 5 -4 -9 13 -16 12
-16 -10 -5 -13 7 -21 9 -17 3 3 -5 -5 -17 -18 -26 -17 -11 -23 -22 -19 -36 4
-16 2 -19 -11 -14 -12 4 -16 0 -16 -16 0 -14 -4 -19 -12 -14 -8 5 -9 2 -5 -9
3 -10 2 -17 -3 -17 -6 0 -9 -3 -9 -7 3 -20 -3 -23 -24 -12 -19 11 -20 10 -9
-3 10 -13 10 -17 -3 -21 -9 -4 -12 -13 -8 -24 5 -15 3 -15 -11 2 -17 20 -17
20 -11 -2 3 -12 1 -25 -6 -29 -8 -5 -9 -3 -4 6 5 9 4 11 -3 6 -7 -4 -12 -16
-12 -26 0 -13 -6 -18 -19 -15 -14 3 -18 -1 -14 -11 3 -9 0 -14 -8 -12 -9 2
-13 -4 -11 -16 2 -11 -1 -15 -7 -11 -6 3 -11 1 -11 -5 0 -6 -5 -8 -10 -5 -6 4
-10 3 -9 -2 4 -26 -2 -44 -13 -37 -8 5 -7 0 2 -11 14 -17 14 -18 -10 -5 -24
13 -24 12 -10 -5 13 -17 13 -18 -1 -13 -12 5 -16 1 -15 -15 1 -13 -4 -21 -12
-19 -6 1 -12 -3 -12 -9 0 -5 -4 -7 -10 -4 -6 4 -7 -1 -3 -11 4 -12 3 -15 -5
-10 -15 9 -16 -6 -2 -20 6 -6 3 -10 -10 -11 -13 -1 -18 2 -13 10 4 7 0 6 -10
-2 -18 -14 -23 -26 -8 -16 5 3 13 0 17 -6 5 -8 -1 -10 -18 -7 -16 3 -25 0 -25
-8 0 -7 4 -11 9 -8 4 3 8 0 8 -5 0 -6 -6 -11 -14 -11 -8 0 -18 -4 -21 -10 -4
-6 1 -7 11 -3 12 4 15 3 10 -6 -5 -7 -17 -11 -27 -8 -15 4 -17 2 -9 -13 9 -16
7 -18 -10 -15 -11 2 -18 0 -15 -6 4 -5 2 -9 -4 -9 -6 0 -7 -7 -4 -17 4 -10 2
-14 -4 -10 -12 8 -39 -20 -29 -30 3 -3 6 -1 6 6 0 7 5 9 12 5 7 -5 8 -3 3 6
-6 9 -4 11 4 5 17 -10 -1 -28 -31 -30 -18 -1 -22 -7 -20 -25 3 -16 0 -20 -9
-14 -9 5 -10 2 -5 -11 5 -15 4 -16 -8 -6 -12 10 -13 9 -9 -8 3 -13 1 -21 -6
-21 -7 0 -9 5 -5 13 5 8 3 8 -9 -2 -15 -12 -15 -31 -1 -31 3 0 2 5 -2 12 -5 7
-3 8 5 4 15 -10 -10 -41 -48 -59 -19 -9 -25 -19 -23 -35 2 -12 -2 -22 -8 -22
-6 0 -8 6 -5 13 4 6 -1 3 -9 -7 -12 -15 -13 -23 -4 -33 9 -11 7 -12 -8 -7 -10
4 -16 4 -12 -1 4 -4 0 -14 -10 -22 -9 -8 -11 -11 -3 -7 10 5 12 3 7 -5 -5 -7
-15 -10 -24 -6 -9 3 -13 3 -9 -1 4 -4 0 -15 -8 -24 -9 -10 -15 -24 -13 -31 2
-8 -3 -13 -10 -11 -6 1 -12 -5 -12 -14 0 -19 -25 -46 -34 -36 -4 3 -4 -2 0
-12 5 -14 4 -17 -5 -12 -8 6 -11 2 -9 -9 2 -10 -3 -20 -11 -23 -8 -3 -11 0 -7
7 5 7 1 9 -9 4 -9 -3 -13 -9 -8 -12 16 -12 14 -34 -3 -27 -12 4 -15 2 -10 -9
3 -8 1 -15 -5 -15 -6 0 -7 -5 -3 -12 5 -8 1 -9 -12 -4 -15 6 -16 5 -7 -5 9 -9
5 -19 -20 -42 -18 -16 -25 -25 -17 -19 13 9 16 7 16 -7 0 -13 -7 -17 -23 -15
-27 3 -28 0 -7 -21 15 -14 14 -15 -11 -11 -21 4 -24 2 -16 -8 8 -10 7 -17 -4
-26 -8 -7 -12 -17 -8 -23 4 -6 1 -7 -6 -3 -9 6 -8 13 6 29 18 22 18 22 -2 5
-12 -9 -21 -27 -22 -40 -1 -12 -9 -28 -17 -34 -9 -6 -12 -15 -8 -19 4 -5 -1
-5 -10 -2 -12 4 -15 2 -11 -9 3 -7 0 -14 -7 -14 -9 0 -9 -4 1 -17 13 -15 12
-15 -7 -5 -16 9 -21 8 -21 -3 0 -8 4 -12 9 -9 4 3 8 0 8 -5 0 -6 -9 -11 -20
-11 -22 0 -27 -15 -7 -23 9 -4 9 -6 -1 -6 -7 -1 -10 -5 -7 -11 4 -6 -1 -7 -12
-3 -10 3 -15 3 -11 -2 4 -4 0 -14 -10 -22 -10 -9 -11 -11 -2 -7 12 7 13 5 3
-8 -7 -8 -9 -18 -5 -22 4 -4 0 -6 -8 -4 -8 1 -18 8 -22 13 -5 6 -8 6 -8 -2 0
-7 8 -17 18 -23 16 -11 16 -11 0 -6 -12 3 -22 -2 -29 -17 -11 -20 -11 -21 5
-8 14 12 16 12 10 -3 -6 -15 -17 -20 -37 -17 -4 1 -3 -8 3 -19 9 -17 7 -22
-15 -30 -14 -5 -25 -17 -25 -25 0 -20 -25 -46 -35 -37 -4 4 -3 -2 3 -14 9 -17
7 -23 -19 -38 -23 -14 -27 -21 -19 -31 8 -10 8 -15 -1 -21 -8 -5 -10 -3 -5 7
4 8 1 6 -7 -3 -8 -10 -16 -17 -18 -15 -2 1 2 -3 9 -9 10 -9 8 -13 -9 -17 -15
-4 -20 -11 -15 -23 5 -12 2 -15 -12 -12 -11 3 -19 0 -19 -8 0 -7 4 -11 9 -8 4
3 8 0 8 -5 0 -10 -14 -15 -33 -12 -5 1 -6 -3 -2 -9 3 -6 12 -8 18 -4 7 3 4 -1
-5 -9 -10 -8 -15 -17 -11 -20 3 -4 -2 -7 -12 -7 -14 0 -15 -3 -5 -15 10 -12 8
-13 -10 -10 -18 3 -20 2 -10 -10 8 -10 8 -15 -1 -21 -8 -5 -9 -3 -4 6 5 9 4
11 -3 6 -7 -4 -12 -16 -12 -27 0 -10 -4 -19 -9 -19 -6 0 -8 -9 -6 -19 2 -11
-4 -26 -13 -33 -16 -12 -16 -11 -2 6 15 19 14 19 -12 2 -31 -20 -36 -29 -13
-20 8 4 15 1 15 -5 0 -6 -4 -11 -10 -11 -5 0 -10 -7 -10 -16 0 -11 -5 -14 -16
-10 -15 6 -15 3 1 -21 10 -16 12 -22 4 -15 -19 18 -26 15 -25 -10 2 -32 -15
-49 -33 -34 -12 8 -13 8 -7 -2 4 -7 2 -20 -6 -30 -11 -15 -11 -15 2 -5 13 10
16 9 16 -6 0 -12 -7 -17 -21 -15 -13 1 -22 -4 -22 -12 0 -7 4 -11 8 -9 4 3 9
-1 12 -9 4 -10 0 -12 -13 -9 -15 4 -18 1 -15 -17 4 -18 2 -20 -11 -9 -12 10
-13 9 -8 -6 6 -14 4 -16 -7 -11 -8 4 -5 0 5 -8 18 -15 18 -16 2 -16 -10 0 -14
-4 -10 -12 5 -7 2 -9 -8 -6 -8 4 -15 0 -15 -8 0 -7 5 -11 10 -7 5 3 3 -5 -4
-18 -7 -13 -12 -28 -11 -32 1 -4 -6 -3 -16 2 -16 9 -19 6 -17 -19 1 -18 -3
-26 -10 -23 -7 2 -15 -5 -18 -17 -4 -17 -3 -19 8 -10 8 7 5 -7 -8 -32 -23 -45
-36 -60 -48 -52 -4 2 -11 -1 -15 -7 -4 -7 -3 -9 3 -6 6 4 13 0 17 -8 3 -8 1
-15 -4 -15 -6 0 -10 -4 -10 -10 0 -5 -9 -19 -20 -30 -12 -12 -18 -25 -15 -30
4 -6 -1 -13 -10 -16 -12 -5 -13 -9 -4 -20 8 -10 8 -14 0 -14 -6 0 -10 -3 -9
-7 3 -11 -23 -56 -39 -68 -8 -6 -15 -19 -17 -29 -1 -9 -9 -22 -17 -27 -11 -7
-10 -9 6 -9 18 -1 17 -2 -4 -11 -19 -7 -22 -14 -17 -37 5 -20 4 -23 -4 -12 -8
13 -10 13 -10 -2 0 -10 -10 -27 -22 -38 -17 -16 -18 -19 -5 -15 10 4 17 2 17
-4 0 -6 -7 -11 -15 -11 -8 0 -14 -3 -14 -7 4 -22 -2 -33 -14 -27 -8 5 -8 2 2
-9 8 -11 9 -17 3 -17 -6 0 -16 -10 -23 -21 -8 -15 -8 -19 0 -15 18 11 13 -10
-6 -25 -14 -12 -16 -12 -8 0 5 10 4 12 -4 7 -9 -6 -9 -11 -1 -21 7 -9 6 -16
-7 -26 -17 -13 -17 -13 -3 5 14 18 14 19 -7 5 -19 -11 -20 -15 -8 -22 20 -11
19 -28 0 -21 -15 6 -17 0 -18 -44 0 -17 -4 -21 -16 -17 -8 3 -12 3 -9 -1 4 -4
3 -15 -2 -25 -7 -12 -6 -19 3 -22 9 -3 9 -8 -2 -18 -8 -9 -11 -9 -7 -2 5 9 2
11 -8 7 -17 -6 -17 -25 -1 -36 6 -5 3 -8 -7 -8 -10 0 -23 -10 -29 -22 -12 -22
-11 -22 6 -8 11 8 6 -3 -10 -24 -17 -22 -25 -37 -18 -33 6 4 14 3 18 -3 3 -6
-4 -10 -17 -10 -18 0 -20 -2 -8 -10 13 -8 12 -10 -2 -10 -10 0 -18 -5 -18 -11
0 -5 5 -7 10 -4 6 3 10 1 10 -4 0 -6 -5 -11 -11 -11 -6 0 -9 -6 -6 -14 3 -8
-2 -20 -11 -28 -16 -12 -16 -11 -2 7 14 18 14 19 -2 7 -10 -8 -14 -20 -11 -29
4 -10 2 -14 -4 -10 -5 3 -10 0 -10 -8 0 -8 4 -12 8 -9 4 2 10 0 14 -6 6 -9
-16 -15 -39 -11 -5 1 -4 -5 4 -13 8 -11 9 -16 1 -16 -6 0 -10 -3 -10 -7 3 -19
-2 -34 -9 -29 -5 3 -9 -1 -9 -8 0 -9 7 -12 16 -9 10 4 9 0 -4 -10 -11 -8 -24
-13 -30 -10 -5 2 -1 -3 9 -11 19 -15 19 -16 2 -16 -14 0 -17 -6 -14 -25 4 -18
-1 -29 -18 -40 -15 -9 -21 -21 -17 -31 3 -8 -3 -22 -13 -30 -11 -9 -13 -13 -6
-9 15 8 16 -11 1 -21 -6 -3 -8 -15 -6 -26 4 -15 3 -17 -8 -8 -11 9 -12 7 -8
-11 5 -17 3 -20 -7 -14 -10 6 -12 4 -7 -8 3 -10 2 -17 -3 -17 -5 0 -7 -9 -5
-20 2 -11 0 -20 -5 -20 -4 0 -10 -7 -13 -14 -4 -11 -1 -13 11 -10 9 3 4 -4
-11 -16 -20 -16 -25 -25 -17 -35 7 -9 5 -16 -7 -26 -17 -13 -17 -13 -3 6 14
19 14 19 -3 6 -13 -10 -15 -17 -6 -27 11 -13 5 -19 -15 -15 -5 1 -4 -4 3 -12
9 -11 9 -16 0 -19 -6 -2 -12 -21 -12 -41 -1 -28 -5 -36 -16 -32 -10 4 -11 2
-3 -8 8 -10 6 -16 -9 -25 -17 -11 -18 -16 -9 -28 10 -11 9 -14 -6 -14 -11 0
-15 -4 -9 -8 13 -10 16 -44 2 -35 -6 4 -8 -2 -4 -16 5 -19 3 -20 -10 -9 -15
12 -15 10 -3 -12 13 -24 12 -24 -5 -10 -11 9 -16 10 -11 3 4 -8 2 -13 -6 -13
-11 0 -10 -2 0 -9 11 -7 11 -9 -2 -14 -9 -4 -16 -12 -16 -19 0 -10 2 -10 9 0
7 11 9 11 14 -2 4 -9 3 -15 -1 -15 -4 1 -14 1 -22 0 -13 -1 -13 -2 0 -11 12
-8 12 -10 -3 -16 -12 -4 -14 -10 -8 -18 9 -11 -9 -48 -23 -47 -3 1 -5 -2 -3
-6 1 -5 5 -7 10 -6 4 2 7 -2 7 -7 0 -6 -5 -10 -12 -10 -6 0 -8 -3 -5 -7 4 -3
2 -12 -4 -20 -8 -9 -8 -13 -1 -13 6 0 9 -7 6 -15 -4 -8 -11 -12 -18 -8 -6 3
-2 -4 8 -16 17 -19 18 -21 3 -15 -10 3 -17 3 -16 -2 4 -24 -2 -33 -18 -27 -12
4 -9 -1 7 -15 19 -17 21 -21 6 -15 -15 5 -18 3 -13 -10 3 -8 1 -17 -5 -19 -19
-7 -18 -37 0 -32 14 5 14 4 -1 -6 -9 -6 -22 -8 -28 -4 -8 4 -7 0 0 -15 10 -17
9 -22 -4 -27 -8 -4 -12 -11 -8 -18 5 -6 8 -21 8 -33 1 -18 -2 -20 -14 -10 -12
10 -13 9 -3 -9 9 -17 9 -24 -3 -34 -18 -15 -21 -55 -3 -44 7 4 8 3 4 -5 -6 -9
-11 -9 -22 0 -11 9 -14 8 -15 -7 -1 -11 -1 -23 0 -28 1 -4 -3 -14 -9 -21 -7
-9 -8 -15 -1 -19 6 -4 8 -13 5 -21 -4 -8 -11 -12 -16 -9 -6 4 -5 -3 1 -15 10
-18 9 -21 -5 -21 -10 0 -14 -3 -11 -7 4 -3 2 -12 -4 -19 -6 -8 -9 -20 -6 -29
4 -8 1 -17 -4 -21 -6 -3 -8 -16 -5 -27 3 -12 -2 -29 -11 -39 -11 -13 -12 -18
-3 -18 9 0 9 -4 2 -12 -11 -14 -12 -18 -12 -44 0 -9 -5 -12 -12 -8 -10 6 -10
4 0 -8 8 -10 9 -18 3 -22 -6 -4 -7 -14 -4 -23 4 -11 3 -14 -5 -9 -8 4 -10 2
-6 -7 3 -8 0 -18 -6 -22 -9 -6 -9 -10 1 -16 11 -7 11 -9 1 -9 -7 0 -10 -4 -7
-10 3 -5 2 -10 -3 -10 -5 0 -8 -16 -6 -35 2 -33 0 -35 -19 -29 -22 6 -22 6 -2
-10 14 -11 16 -15 6 -16 -8 0 -11 -3 -8 -7 4 -3 2 -12 -4 -20 -9 -10 -8 -13 0
-13 8 0 7 -6 -3 -16 -9 -8 -14 -20 -10 -25 3 -6 1 -16 -6 -24 -7 -8 -7 -15 -1
-19 13 -9 3 -36 -12 -32 -7 1 -9 1 -4 -1 4 -3 4 -10 1 -15 -4 -7 -2 -8 4 -4 7
4 12 2 12 -3 0 -6 -4 -11 -10 -11 -5 0 -10 -8 -10 -17 0 -16 -2 -16 -11 -3 -9
12 -10 12 -5 -3 3 -10 1 -27 -4 -38 -8 -13 -7 -19 0 -19 6 0 8 -5 5 -10 -4 -6
-11 -8 -16 -5 -5 3 -6 -1 -2 -10 3 -10 0 -21 -8 -26 -8 -5 -9 -9 -3 -9 6 0 11
-7 11 -15 0 -8 -5 -15 -11 -15 -6 0 -6 -4 1 -11 9 -9 9 -18 -1 -38 -7 -14 -12
-45 -12 -68 1 -22 -2 -39 -7 -36 -4 2 -7 -4 -7 -14 0 -11 -5 -24 -11 -30 -7
-7 -8 -13 0 -17 6 -4 7 -15 1 -29 -5 -12 -11 -35 -15 -50 -3 -16 -10 -25 -16
-21 -7 4 -7 -1 0 -15 8 -15 9 -21 1 -21 -6 0 -8 -4 -5 -10 3 -5 1 -10 -5 -10
-6 0 -8 -5 -3 -12 11 -19 12 -38 2 -38 -6 0 -7 -6 -2 -12 11 -18 13 -39 3 -33
-4 3 -11 -2 -14 -11 -9 -24 -7 -31 4 -14 7 11 10 12 10 2 0 -8 -10 -23 -22
-34 -13 -11 -18 -17 -12 -14 7 3 15 -1 18 -10 3 -8 2 -12 -3 -9 -10 6 -27 -33
-22 -50 8 -27 7 -55 -2 -55 -5 0 -4 -7 3 -15 10 -12 10 -15 -1 -15 -11 0 -11
-2 1 -10 14 -9 7 -14 -13 -11 -4 1 -3 -8 3 -19 9 -16 8 -20 -7 -21 -11 0 -13
-2 -5 -6 10 -4 9 -9 -5 -20 -10 -8 -13 -12 -6 -9 6 4 14 2 18 -4 3 -5 0 -10
-9 -10 -8 0 -13 -7 -11 -17 1 -10 -2 -24 -8 -30 -6 -8 -6 -13 0 -13 5 0 9 -10
7 -22 -1 -13 -3 -27 -3 -31 -1 -5 -7 -5 -13 -2 -7 4 -4 -1 6 -9 16 -13 17 -16
4 -16 -13 0 -15 -16 -14 -100 1 -82 -2 -99 -13 -95 -11 4 -12 3 -1 -10 9 -11
9 -15 1 -15 -7 0 -9 -4 -6 -10 3 -5 1 -10 -6 -10 -8 0 -8 -4 -2 -12 11 -15 13
-48 3 -48 -4 0 -7 -7 -7 -15 0 -8 5 -15 10 -15 5 0 5 -6 -2 -13 -8 -10 -7 -17
2 -27 8 -8 8 -11 1 -7 -15 9 -22 -10 -18 -50 1 -18 -1 -33 -6 -33 -5 0 -9 -8
-8 -17 0 -10 -9 -117 -21 -238 -11 -121 -26 -303 -33 -405 -18 -252 -18 -1378
0 -1630 22 -310 43 -524 53 -536 5 -6 6 -20 2 -29 -4 -13 -3 -16 5 -11 14 9
15 5 3 -28 -7 -17 -7 -26 2 -29 9 -3 9 -8 -2 -20 -10 -13 -10 -17 -1 -17 7 0
10 -7 6 -15 -3 -8 0 -28 6 -43 14 -35 16 -54 4 -69 -5 -8 -4 -13 3 -13 8 0 9
-5 2 -19 -6 -10 -8 -21 -5 -23 10 -11 12 -48 3 -53 -5 -4 -5 -14 1 -26 6 -10
7 -19 3 -19 -4 0 1 -6 12 -13 14 -11 15 -16 5 -22 -9 -6 -11 -4 -5 5 5 8 4 11
-3 6 -13 -8 -5 -36 10 -36 5 0 6 -4 3 -10 -3 -5 -1 -10 6 -10 8 0 8 -4 -1 -15
-11 -13 -10 -18 6 -30 13 -10 15 -14 5 -15 -9 0 -10 -4 -4 -12 13 -17 13 -48
0 -48 -6 0 -3 -8 7 -19 10 -11 14 -25 10 -36 -5 -13 -4 -16 4 -11 15 9 15 1 2
-24 -6 -12 -6 -21 -1 -25 5 -3 8 -16 5 -30 -3 -16 2 -27 13 -34 11 -6 13 -11
5 -11 -8 0 -10 -5 -6 -12 11 -17 12 -48 2 -42 -4 3 -8 0 -8 -5 0 -6 4 -11 8
-11 5 0 9 -7 10 -15 1 -8 3 -22 4 -30 1 -8 6 -15 11 -15 5 0 4 -6 -2 -13 -6
-8 -8 -17 -4 -20 3 -4 7 -30 8 -58 2 -30 8 -55 16 -60 10 -6 10 -9 2 -9 -7 0
-10 -7 -7 -15 4 -8 10 -12 15 -9 13 8 11 -10 -3 -25 -8 -9 -8 -11 -2 -8 16 9
25 -18 11 -32 -7 -7 -7 -11 -1 -11 12 0 12 -29 0 -48 -4 -7 -2 -12 4 -12 7 0
10 -6 7 -14 -3 -7 0 -19 6 -25 6 -6 7 -11 3 -11 -5 0 -2 -8 5 -17 12 -14 12
-15 1 -9 -11 7 -12 4 -3 -13 7 -12 9 -26 6 -31 -6 -10 21 -57 30 -52 8 4 7 -9
-1 -16 -4 -4 -4 -1 0 5 5 9 2 11 -9 7 -14 -6 -13 -9 5 -21 15 -11 18 -18 11
-27 -7 -9 -6 -19 5 -35 9 -12 13 -25 10 -28 -3 -3 -1 -15 5 -26 8 -14 8 -18 0
-13 -16 10 -13 -3 4 -20 8 -9 15 -21 15 -27 0 -7 -4 -6 -10 3 -6 9 -10 10 -10
3 0 -6 6 -18 13 -25 16 -17 18 -48 3 -48 -6 0 -3 -5 7 -11 9 -6 15 -14 12 -20
-4 -5 -1 -9 6 -9 9 0 9 -3 0 -14 -7 -8 -8 -17 -3 -20 5 -3 8 -19 7 -36 -1 -21
3 -30 14 -31 11 0 12 -2 3 -6 -10 -4 -10 -8 0 -21 11 -13 11 -14 -2 -7 -9 5
-7 -1 5 -15 12 -14 14 -20 5 -15 -12 7 -13 6 -4 -6 6 -8 10 -22 9 -31 -2 -10
2 -18 8 -18 5 0 7 -3 4 -7 -4 -3 -2 -13 5 -20 9 -11 9 -17 -3 -24 -11 -7 -11
-9 4 -9 20 0 22 -11 5 -28 -9 -9 -8 -12 4 -12 10 0 15 -7 13 -17 -1 -10 2 -26
7 -35 6 -13 5 -18 -4 -18 -6 0 -3 -7 8 -15 11 -8 14 -15 7 -15 -7 0 -13 -4
-13 -10 0 -5 3 -9 7 -9 19 3 33 -2 33 -12 0 -5 -6 -7 -12 -3 -10 5 -10 4 -1
-6 6 -7 9 -19 6 -26 -3 -8 -1 -14 5 -14 5 0 10 -10 11 -22 3 -57 9 -90 17 -96
5 -4 10 -14 12 -22 2 -8 10 -22 18 -32 12 -12 12 -18 3 -24 -8 -4 -10 -3 -5 4
4 7 2 12 -3 12 -16 0 -13 -18 5 -28 19 -11 20 -22 3 -33 -10 -6 -9 -9 4 -15
13 -5 15 -10 7 -19 -8 -10 -8 -15 1 -21 8 -5 9 -3 4 6 -6 9 -4 11 4 5 7 -4 10
-17 7 -30 -4 -16 -1 -25 11 -29 14 -6 15 -9 4 -15 -10 -7 -10 -9 3 -14 9 -4
13 -14 11 -27 -2 -11 0 -20 6 -20 5 0 9 -5 9 -11 0 -5 -5 -7 -12 -3 -7 4 -2
-9 10 -30 12 -20 18 -34 12 -31 -5 3 -10 1 -10 -4 0 -6 4 -11 10 -11 5 0 9 -6
7 -12 -1 -7 5 -12 13 -10 12 3 12 1 3 -9 -10 -10 -9 -15 5 -26 12 -10 12 -12
2 -8 -8 4 -6 -1 4 -9 15 -12 16 -16 5 -16 -12 0 -12 -2 0 -9 8 -5 12 -18 8
-30 -3 -11 0 -19 5 -18 6 1 13 -11 15 -28 2 -16 10 -33 16 -37 7 -4 8 -8 4 -8
-4 0 -3 -9 3 -19 7 -14 6 -21 -3 -24 -7 -3 -4 -6 6 -6 10 -1 15 -6 12 -11 -3
-6 -2 -10 3 -10 5 0 7 -12 4 -26 -3 -17 -1 -25 5 -21 6 4 13 -2 16 -13 3 -11
1 -18 -4 -14 -5 3 -6 -2 -3 -10 3 -9 9 -16 13 -16 4 0 7 -9 8 -20 1 -13 -3
-18 -10 -14 -7 3 -1 -4 12 -15 13 -12 19 -21 14 -21 -5 0 -10 -7 -10 -15 0 -8
6 -15 12 -15 6 0 12 -7 12 -15 0 -8 -5 -15 -11 -15 -6 0 -5 -4 3 -9 8 -5 21
-7 30 -3 12 4 11 0 -4 -18 -11 -13 -15 -20 -8 -16 13 7 37 -27 26 -38 -3 -3
-1 -6 5 -6 6 0 9 -7 6 -15 -4 -9 1 -18 11 -21 13 -5 14 -9 3 -15 -10 -7 -10
-11 -1 -17 7 -4 11 -18 8 -30 -2 -13 0 -20 6 -17 5 4 9 1 9 -6 0 -7 8 -21 17
-32 13 -15 14 -18 3 -12 -10 6 -9 1 3 -13 11 -11 16 -25 13 -30 -3 -5 4 -22
16 -38 13 -15 17 -25 10 -20 -6 4 -12 3 -12 -2 0 -6 7 -12 15 -16 9 -3 12 -12
8 -22 -5 -13 -3 -15 7 -9 9 5 11 4 6 -4 -4 -6 -2 -19 6 -28 9 -12 9 -15 1 -9
-9 5 -11 2 -7 -8 3 -9 14 -16 23 -16 14 0 14 -2 1 -10 -12 -7 -12 -10 -1 -10
7 0 11 -6 7 -15 -3 -8 -1 -15 4 -15 6 0 9 -3 9 -7 -4 -22 2 -33 14 -27 7 5 6
0 -3 -11 -9 -11 -10 -16 -2 -11 14 8 20 -4 26 -53 2 -18 9 -37 16 -41 7 -4 10
-12 6 -18 -3 -6 -1 -14 5 -18 8 -4 9 -3 5 4 -4 7 -5 12 -2 12 3 0 10 -10 17
-21 7 -15 8 -19 0 -15 -7 5 -9 1 -5 -8 3 -9 11 -13 16 -10 6 4 5 -4 -2 -16 -8
-15 -8 -20 -1 -16 7 5 14 -5 18 -24 4 -23 8 -28 15 -18 6 9 8 6 6 -12 -2 -15
2 -25 10 -25 12 0 17 -10 9 -23 -2 -4 -2 0 0 8 3 12 1 12 -8 3 -9 -9 -7 -18 9
-38 12 -15 18 -33 15 -42 -4 -11 -2 -14 5 -9 11 6 17 -5 13 -26 0 -5 6 -8 15
-8 14 0 15 -2 3 -17 -11 -13 -11 -17 -1 -20 6 -3 10 -9 7 -14 -4 -5 1 -6 10
-3 11 5 14 2 9 -10 -3 -9 -2 -16 3 -16 5 0 10 -6 10 -12 1 -19 7 -42 13 -48 3
-3 13 -17 22 -32 13 -20 14 -28 5 -31 -9 -4 -9 -6 1 -6 7 -1 10 -5 7 -11 -4
-6 1 -7 11 -3 14 5 15 3 4 -17 -7 -12 -8 -20 -2 -16 5 3 18 -4 28 -17 16 -18
16 -19 2 -8 -25 19 -22 6 3 -18 13 -12 19 -26 15 -36 -4 -10 -2 -14 5 -9 7 4
9 -1 5 -17 -3 -13 -3 -18 0 -11 10 21 22 13 19 -14 -1 -15 3 -28 12 -31 7 -3
18 -14 24 -24 8 -15 6 -18 -8 -14 -10 3 -5 -1 11 -8 20 -10 25 -16 15 -19 -11
-5 -10 -9 6 -23 11 -9 14 -14 8 -10 -9 4 -11 1 -7 -9 3 -9 10 -14 14 -11 11 7
20 -22 13 -42 -4 -10 -2 -14 4 -10 6 4 17 -1 24 -10 10 -12 10 -14 2 -9 -7 4
-13 2 -13 -3 0 -6 5 -11 10 -11 6 0 10 -9 10 -20 0 -17 10 -24 31 -22 3 1 4
-10 1 -24 -3 -17 0 -24 9 -22 10 2 13 -5 11 -21 -2 -13 1 -21 6 -17 6 4 8 -3
4 -16 -4 -16 -2 -19 8 -13 10 6 12 3 7 -15 -4 -16 -1 -23 13 -27 16 -4 18 -9
9 -24 -7 -15 -6 -19 5 -19 15 0 27 -23 22 -42 -1 -7 -1 -10 1 -6 3 4 10 2 18
-5 8 -8 10 -16 3 -24 -6 -8 -3 -10 11 -6 13 3 21 1 21 -6 0 -7 -5 -9 -11 -5
-6 3 -4 -5 5 -18 9 -14 13 -28 9 -32 -4 -4 1 -4 12 0 17 7 18 6 7 -8 -10 -13
-10 -18 -1 -24 8 -5 9 -3 4 6 -5 9 -4 11 3 6 7 -4 12 -14 12 -22 0 -8 6 -14
13 -14 8 0 7 -4 -3 -10 -13 -9 -7 -14 12 -11 4 0 5 -6 2 -14 -4 -8 -11 -12
-17 -8 -6 3 -7 1 -3 -6 6 -9 11 -9 22 0 11 9 15 6 20 -21 5 -23 9 -28 16 -18
7 9 8 7 5 -8 -3 -13 3 -26 14 -35 15 -10 16 -16 6 -28 -6 -9 -8 -13 -3 -9 13
11 45 -23 41 -44 -2 -10 0 -16 6 -13 5 4 9 1 9 -4 0 -20 3 -26 19 -39 9 -8 10
-11 4 -7 -9 4 -11 1 -7 -10 4 -9 9 -14 11 -11 11 11 55 -55 50 -74 -3 -11 0
-18 5 -17 6 1 12 -8 14 -21 3 -16 0 -21 -8 -16 -7 4 -8 3 -4 -5 5 -8 12 -9 20
-2 9 7 17 2 31 -21 10 -17 13 -28 6 -24 -16 10 -14 2 8 -22 10 -12 21 -18 25
-14 4 4 6 0 4 -8 -2 -8 3 -14 10 -12 8 1 11 -2 7 -7 -3 -6 -13 -8 -23 -5 -9 2
-7 -1 6 -7 20 -11 27 -28 23 -52 -1 -5 3 -6 9 -2 6 3 7 11 4 17 -4 7 -2 8 4 4
6 -4 9 -13 5 -21 -3 -11 2 -15 18 -16 13 0 18 -3 12 -6 -19 -7 -16 -21 13 -50
20 -20 23 -28 12 -34 -9 -6 -6 -9 11 -9 20 0 22 -2 11 -15 -7 -9 -10 -18 -6
-22 3 -3 6 -2 6 4 0 5 6 10 14 10 8 0 12 -6 9 -13 -3 -7 7 -25 21 -39 15 -15
24 -31 21 -36 -4 -5 -1 -9 5 -9 13 0 51 -61 44 -71 -6 -11 31 -30 41 -21 5 4
5 1 1 -6 -4 -7 -13 -10 -19 -6 -7 3 3 -6 21 -21 18 -15 31 -33 28 -41 -3 -7 0
-14 5 -16 5 -2 11 -13 12 -25 0 -12 5 -19 9 -17 5 3 5 10 2 16 -5 7 -2 8 5 4
7 -5 10 -14 7 -22 -3 -8 -1 -14 5 -14 6 0 7 -5 3 -12 -5 -8 -2 -9 11 -4 16 6
16 4 4 -11 -12 -15 -12 -16 5 -10 14 6 17 4 12 -8 -3 -8 -1 -15 5 -15 6 0 7
-4 4 -10 -3 -5 3 -10 15 -10 17 0 20 -4 15 -20 -4 -12 -2 -20 5 -20 6 0 8 -4
5 -10 -3 -6 4 -10 16 -10 22 0 22 0 3 -15 -19 -14 -18 -14 2 -9 17 5 22 0 27
-26 4 -17 11 -29 16 -26 5 3 15 -2 22 -11 10 -11 10 -14 2 -9 -9 5 -11 2 -7
-8 3 -9 10 -14 14 -11 4 3 11 -2 14 -11 3 -8 2 -12 -4 -9 -6 3 -7 -1 -4 -9 3
-9 10 -14 14 -11 15 9 39 -6 33 -21 -3 -9 3 -22 16 -30 16 -11 20 -22 16 -37
-5 -17 -4 -19 4 -7 7 10 11 11 11 3 0 -7 7 -10 18 -7 14 5 14 4 2 -4 -12 -9
-10 -14 13 -32 15 -12 27 -29 27 -38 0 -15 2 -15 10 -2 5 8 10 10 10 5 0 -6
-6 -17 -12 -24 -9 -9 -9 -12 -1 -7 14 7 43 -19 43 -40 0 -8 6 -13 12 -11 7 1
12 -5 10 -14 -1 -9 6 -19 17 -22 13 -3 18 -12 16 -31 -3 -22 -1 -24 15 -16 15
8 17 6 12 -12 -3 -14 -1 -19 6 -14 11 6 18 -20 13 -47 -1 -5 3 -6 9 -2 6 3 7
11 4 17 -5 7 -2 8 5 4 7 -5 10 -15 6 -23 -5 -13 -3 -14 10 -3 9 7 15 9 14 4
-4 -21 2 -35 11 -29 6 3 10 -1 10 -10 0 -8 7 -18 16 -22 13 -5 13 -7 2 -14
-10 -7 -10 -9 3 -9 9 0 24 -10 35 -22 l19 -23 -25 20 -25 20 19 -22 c11 -13
25 -23 33 -23 7 0 13 -5 13 -11 0 -5 -4 -7 -10 -4 -6 3 -7 -1 -4 -10 4 -9 13
-14 22 -10 12 5 13 3 2 -10 -7 -9 -9 -15 -4 -14 26 5 36 -1 25 -15 -10 -12 -9
-14 7 -10 10 3 25 -2 33 -12 11 -14 11 -16 0 -10 -9 6 -12 5 -10 -3 3 -7 9
-12 14 -12 21 0 45 -32 35 -44 -13 -16 8 -34 33 -30 14 3 16 0 7 -10 -8 -10
-4 -18 20 -35 22 -16 30 -28 27 -41 -3 -11 -1 -17 4 -13 5 3 17 0 26 -5 14 -8
15 -11 3 -12 -8 0 -4 -4 10 -8 14 -4 25 -14 25 -23 0 -9 4 -20 9 -25 5 -4 6
-3 2 4 -3 6 -3 14 2 17 5 3 9 0 10 -7 2 -12 10 -58 11 -66 1 -2 9 3 18 10 11
10 14 10 9 2 -4 -9 -1 -13 10 -13 14 0 15 -2 3 -17 -8 -9 -9 -14 -3 -10 7 4
15 0 18 -9 4 -9 13 -14 22 -10 8 3 13 2 9 -3 -3 -5 1 -12 7 -14 10 -4 9 -8 -2
-16 -12 -9 -9 -11 12 -7 20 3 29 0 33 -15 4 -10 3 -23 0 -29 -4 -6 -1 -9 6 -8
7 2 16 -8 20 -22 4 -14 7 -19 8 -11 1 13 15 7 17 -7 3 -23 19 -42 35 -42 10 0
19 -5 19 -11 0 -5 -5 -7 -12 -3 -7 5 -8 3 -4 -5 5 -7 10 -10 13 -7 7 7 32 -17
26 -26 -2 -5 6 -8 18 -8 19 0 20 -2 8 -17 -10 -12 -10 -15 -1 -9 16 9 52 -2
52 -17 0 -8 -3 -8 -12 1 -7 7 -17 12 -22 12 -11 -1 22 -23 37 -26 4 -1 10 -2
15 -3 4 -1 0 -6 -8 -11 -11 -7 -12 -10 -2 -10 19 0 43 -26 34 -36 -4 -5 2 -2
12 6 18 14 19 14 7 -8 -9 -18 -9 -22 1 -20 7 2 12 -3 10 -10 -1 -8 2 -11 8 -7
8 5 7 12 -2 23 -12 15 -11 16 4 4 9 -8 18 -23 20 -35 2 -15 9 -21 21 -19 20 3
22 -9 5 -27 -7 -7 -8 -11 -3 -9 12 4 57 -27 50 -34 -3 -3 5 -5 17 -4 16 1 23
-4 22 -16 -1 -11 4 -14 14 -11 9 4 13 2 9 -4 -4 -6 0 -13 8 -17 8 -3 15 -12
15 -20 0 -8 13 -25 29 -39 17 -14 27 -28 23 -32 -4 -5 -1 -5 7 0 12 7 11 10
-4 22 -11 7 -13 13 -6 13 6 0 20 -13 29 -30 9 -16 23 -30 30 -30 6 0 12 -5 12
-11 0 -5 -5 -7 -12 -3 -7 4 -8 3 -4 -4 4 -6 14 -8 23 -5 11 4 14 3 9 -5 -4 -7
-2 -12 6 -12 9 0 9 -3 -2 -10 -8 -5 -10 -10 -4 -10 5 0 16 6 23 12 11 11 13
10 8 -5 -4 -10 -2 -17 5 -17 6 0 8 -3 5 -7 -9 -9 13 -34 24 -27 8 5 13 -9 11
-27 -1 -4 8 -5 18 -2 16 4 19 2 14 -11 -3 -9 -1 -16 6 -16 6 0 8 -5 4 -12 -4
-7 -3 -8 5 -4 6 4 9 11 6 16 -3 5 -1 11 4 14 5 4 8 -5 6 -19 -1 -14 2 -28 8
-32 6 -3 7 -1 3 5 -4 7 -2 12 5 12 7 0 9 -8 6 -21 -4 -16 -3 -18 9 -8 10 8 14
8 15 0 1 -6 2 -17 3 -23 1 -7 9 -12 19 -10 20 3 24 -24 5 -31 -7 -3 2 -4 20
-3 27 3 30 1 20 -11 -6 -8 -7 -13 -2 -12 21 4 34 -2 34 -16 0 -8 4 -15 8 -15
17 0 53 -39 55 -58 1 -13 7 -18 19 -14 16 4 23 -7 19 -30 0 -5 6 -8 15 -8 9 0
12 -5 8 -12 -5 -8 0 -7 11 2 17 14 17 13 10 -10 -7 -23 -7 -24 10 -10 11 8 16
10 13 5 -4 -6 7 -17 24 -24 21 -10 28 -19 25 -32 -4 -15 -2 -17 13 -9 14 7 19
4 29 -18 11 -25 10 -26 -4 -8 -8 11 -15 15 -15 9 0 -20 25 -33 40 -20 10 9 11
9 6 -1 -4 -6 -2 -12 3 -12 6 0 11 -5 11 -11 0 -5 -5 -7 -12 -3 -7 4 -8 3 -4
-4 4 -6 14 -8 23 -5 12 5 14 3 8 -7 -6 -10 -4 -12 8 -7 11 4 17 1 17 -8 0 -8
5 -15 11 -15 5 0 7 -6 3 -12 -6 -10 -4 -10 8 0 13 10 17 10 22 -4 3 -9 4 -19
1 -23 -2 -4 2 -8 9 -8 8 0 12 7 9 16 -4 14 -4 14 6 1 6 -8 11 -24 12 -35 0
-11 3 -14 6 -7 8 21 21 13 15 -10 -5 -21 -4 -22 13 -8 10 8 16 11 13 5 -7 -12
17 -37 26 -28 3 4 6 -1 6 -9 0 -9 8 -22 17 -29 11 -10 14 -10 9 -1 -4 6 -3 12
3 12 5 0 11 -5 13 -10 2 -6 13 -12 26 -13 14 -1 21 -6 18 -14 -5 -12 7 -18 28
-14 5 1 4 -4 -3 -12 -9 -12 -8 -16 4 -21 9 -3 13 -11 9 -17 -4 -8 -3 -9 5 -5
17 11 44 -1 60 -26 l14 -23 -25 23 c-13 12 -28 22 -33 22 -5 0 1 -7 13 -16 12
-8 20 -19 18 -23 -3 -4 4 -8 16 -8 11 -1 28 -11 37 -22 13 -14 21 -17 28 -10
8 8 13 5 18 -10 3 -12 11 -21 16 -21 6 0 7 -4 4 -10 -3 -5 1 -10 9 -10 9 0 16
-5 16 -11 0 -5 5 -7 10 -4 6 3 10 1 10 -5 0 -21 26 -40 38 -28 8 8 13 6 19 -8
9 -25 33 -49 33 -34 0 7 7 4 16 -5 14 -13 19 -14 25 -3 7 10 9 10 10 -2 1 -8
1 -21 0 -29 -2 -7 2 -10 8 -6 6 3 11 1 11 -5 0 -7 7 -9 16 -6 14 5 15 4 5 -8
-9 -11 -9 -16 0 -22 8 -4 9 -3 5 4 -4 7 -2 12 5 12 7 0 9 -8 6 -21 -5 -17 -3
-18 11 -7 14 11 15 10 9 -6 -6 -16 -5 -17 8 -6 13 11 15 9 16 -11 0 -13 3 -18
6 -11 4 10 9 7 17 -8 6 -12 25 -29 41 -38 17 -10 33 -21 36 -26 4 -5 9 0 12
10 4 15 5 16 6 2 0 -9 10 -19 21 -23 11 -3 19 -9 19 -13 -4 -23 4 -29 31 -26
21 3 30 -1 30 -10 0 -8 -6 -16 -12 -19 -7 -2 -1 -4 14 -4 14 0 36 -10 49 -22
13 -11 27 -21 31 -21 5 0 6 -5 3 -10 -3 -6 -1 -10 5 -10 6 0 9 -4 6 -8 -2 -4
5 -9 17 -9 12 -1 23 -7 25 -13 2 -5 13 -10 24 -10 16 0 19 -5 15 -21 -4 -16
-3 -18 9 -8 11 9 14 9 14 0 0 -7 4 -9 10 -6 5 3 10 -2 10 -12 0 -15 2 -16 11
-3 9 12 10 10 6 -8 -5 -19 -3 -21 9 -11 11 9 14 9 14 0 0 -7 4 -9 10 -6 9 6
14 -8 11 -28 -1 -5 3 -6 9 -2 5 3 10 1 10 -4 0 -6 5 -11 11 -11 5 0 7 5 4 10
-3 6 -1 10 5 10 7 0 10 -7 7 -15 -4 -8 -2 -17 3 -20 6 -4 10 0 10 7 0 10 3 9
9 -2 6 -8 7 -19 3 -25 -3 -5 1 -5 9 2 12 10 18 8 29 -7 8 -11 25 -20 37 -20
13 0 23 -4 23 -10 0 -5 -8 -7 -17 -3 -15 5 -14 3 2 -10 11 -9 29 -17 40 -17
18 -1 69 -30 52 -30 -5 0 -2 -6 5 -14 8 -9 17 -11 24 -5 11 9 29 -15 26 -34
-1 -4 1 -7 6 -8 4 0 15 -2 25 -4 9 -2 15 1 11 6 -3 5 -10 6 -16 3 -7 -4 -8 -2
-4 5 10 15 36 -4 36 -25 0 -8 7 -14 16 -14 9 0 12 5 8 13 -5 8 -3 8 9 -2 9 -7
14 -17 11 -22 -3 -5 2 -9 11 -9 10 0 13 -5 9 -12 -5 -9 -2 -8 9 1 15 12 17 12
11 -2 -4 -12 -1 -14 13 -11 12 3 25 -2 33 -13 12 -15 12 -16 0 -6 -21 19 -34
16 -15 -3 13 -14 18 -14 32 -2 12 9 15 9 9 0 -4 -7 -1 -12 8 -12 9 0 16 -5 16
-11 0 -5 -6 -7 -12 -3 -9 5 -9 2 1 -9 7 -9 19 -17 25 -16 7 0 6 2 -2 6 -6 2
-9 9 -6 15 4 5 15 -3 25 -19 11 -16 19 -22 19 -13 1 11 6 9 19 -8 19 -22 38
-31 26 -12 -3 5 0 7 9 4 9 -3 12 -13 9 -22 -5 -14 -3 -15 8 -5 19 18 29 16 29
-7 0 -11 5 -20 11 -20 6 0 17 -7 26 -15 8 -8 19 -13 24 -10 5 4 9 1 9 -4 0 -6
11 -11 25 -11 14 0 25 -4 25 -10 0 -5 -8 -7 -17 -3 -12 3 -9 -1 5 -12 13 -10
35 -18 48 -18 13 0 27 -4 31 -10 4 -6 1 -7 -8 -2 -12 8 -12 6 0 -8 13 -16 14
-16 27 0 13 17 14 17 8 1 -4 -11 -1 -18 6 -18 6 0 8 -5 4 -12 -5 -9 -2 -9 9 1
10 8 17 9 17 3 0 -6 9 -14 21 -17 16 -5 18 -10 8 -21 -8 -9 -8 -14 -1 -14 6 0
16 8 21 18 9 15 10 15 11 1 0 -9 7 -20 16 -23 23 -9 26 -8 18 7 -5 8 -2 8 9
-2 9 -7 17 -21 17 -30 0 -12 2 -13 9 -3 7 11 9 10 14 -3 4 -9 20 -21 37 -26
16 -6 28 -15 25 -19 -3 -5 0 -12 6 -16 7 -4 9 -3 5 4 -4 6 1 10 13 9 11 0 17
-5 15 -9 -3 -4 4 -8 16 -8 14 0 19 -4 14 -12 -6 -10 -4 -10 8 0 14 11 17 10
23 -9 6 -17 9 -19 16 -8 7 11 9 10 9 -4 0 -10 5 -15 10 -12 6 3 10 1 10 -6 0
-7 3 -9 7 -6 3 4 13 1 21 -6 13 -10 15 -9 8 3 -4 9 -1 8 7 -3 8 -9 24 -17 36
-17 14 0 20 -4 15 -11 -4 -7 0 -9 13 -5 17 5 20 2 19 -16 -1 -19 4 -23 31 -22
22 0 29 -3 23 -11 -6 -7 1 -12 21 -13 44 -3 52 -6 67 -20 8 -7 18 -10 23 -7 5
4 6 -1 3 -10 -5 -11 -2 -14 12 -9 11 4 16 4 12 -1 -9 -9 9 -35 23 -35 5 0 9 5
9 11 0 5 -5 7 -12 3 -7 -5 -8 -3 -3 6 6 10 11 10 20 -3 7 -9 28 -18 48 -19 19
-2 33 -5 31 -7 -2 -2 9 -14 25 -25 15 -12 28 -25 29 -29 0 -5 4 -12 8 -15 4
-4 4 -1 0 6 -4 6 -3 12 3 12 5 0 11 -4 13 -9 1 -5 19 -11 38 -14 25 -3 35 -9
34 -20 -1 -10 3 -14 10 -10 17 11 36 12 36 3 0 -5 -6 -10 -12 -12 -7 -3 -2 -7
10 -10 13 -4 20 -2 16 4 -3 5 3 4 14 -3 12 -7 19 -16 17 -19 -2 -4 2 -7 10 -7
8 0 11 5 8 11 -4 6 0 5 9 -1 8 -7 18 -9 22 -5 4 4 7 3 5 -3 -1 -5 1 -18 6 -28
6 -14 10 -16 16 -6 6 10 12 8 26 -8 18 -20 20 -20 31 -5 10 15 11 15 5 -2 -5
-16 -3 -18 16 -13 17 4 20 2 12 -7 -8 -9 -1 -13 26 -14 22 -2 44 -11 55 -24
10 -12 18 -16 18 -10 0 7 5 12 11 12 5 0 7 -4 4 -10 -3 -5 3 -10 14 -10 11 0
30 -10 42 -22 12 -13 18 -17 14 -10 -5 10 -2 13 11 10 11 -2 19 -8 19 -15 0
-6 4 -15 9 -20 5 -5 6 -3 2 5 -11 19 14 14 32 -6 10 -10 13 -12 8 -5 -6 10 -4
12 8 7 9 -3 16 -10 16 -15 0 -5 3 -8 8 -8 20 3 32 -2 26 -12 -4 -7 1 -7 16 1
18 10 21 9 15 -1 -6 -9 -2 -11 13 -7 12 4 20 3 17 -1 -2 -5 7 -13 20 -19 19
-9 25 -9 25 1 1 7 6 5 14 -5 8 -11 16 -14 22 -8 6 6 15 1 23 -13 14 -21 13
-21 -5 -7 -17 14 -18 13 -6 -1 7 -9 23 -15 37 -13 14 1 25 -2 25 -7 0 -5 7 -9
16 -9 9 0 12 -5 8 -12 -6 -10 -4 -10 7 0 16 14 33 16 24 2 -3 -5 -1 -10 5 -10
6 0 9 -4 6 -8 -3 -5 1 -9 9 -9 8 0 12 4 9 9 -3 4 0 8 5 8 6 0 11 -5 11 -11 0
-6 9 -9 20 -6 11 3 23 -1 28 -8 4 -7 21 -15 37 -18 42 -7 65 -17 65 -29 0 -6
7 -8 15 -5 8 4 17 2 20 -3 3 -5 12 -7 21 -3 8 3 23 -4 34 -17 11 -13 20 -18
20 -12 0 7 5 12 11 12 6 0 9 -7 6 -15 -4 -8 -1 -17 5 -21 7 -4 8 -3 4 4 -4 7
-1 12 9 12 10 0 13 -5 9 -12 -5 -7 -3 -8 5 -4 7 5 19 0 27 -10 9 -11 12 -13 9
-6 -5 10 -2 13 11 10 11 -2 18 -9 17 -15 -1 -6 7 -9 20 -6 14 3 18 2 10 -4 -8
-5 5 -9 35 -11 26 -1 48 -6 50 -12 2 -6 8 -8 13 -4 5 3 9 0 9 -7 0 -9 3 -9 14
0 11 9 16 9 22 0 5 -8 3 -9 -6 -4 -8 5 -11 4 -6 -3 4 -6 13 -9 21 -5 8 3 15 1
15 -5 0 -5 12 -7 26 -4 19 3 25 1 20 -6 -5 -8 1 -12 16 -12 42 0 58 -3 58 -13
0 -5 8 -3 18 4 9 7 14 10 10 5 -8 -10 8 -28 42 -46 23 -12 24 -12 11 4 -13 16
-12 16 12 5 15 -7 24 -16 21 -20 -3 -5 1 -6 9 -3 8 3 17 -2 21 -12 5 -14 9
-14 23 -3 9 8 14 9 10 3 -4 -7 0 -15 9 -18 10 -4 13 -2 7 7 -4 6 5 4 20 -6 15
-9 27 -13 27 -8 0 5 9 7 20 4 11 -3 20 -9 20 -14 0 -5 5 -9 11 -9 5 0 7 4 4
10 -3 5 -1 10 4 10 6 0 11 -4 11 -8 0 -5 12 -14 27 -21 24 -11 25 -11 12 5
-12 15 -10 15 16 -2 17 -10 33 -22 36 -27 3 -5 12 -8 20 -7 35 5 60 -1 54 -13
-4 -6 1 -3 9 7 15 19 22 12 17 -17 -1 -5 3 -6 8 -3 5 4 12 0 14 -6 4 -10 6
-10 6 0 1 6 6 12 12 12 5 0 7 -5 4 -11 -4 -6 -1 -10 6 -8 36 4 80 -2 74 -11
-3 -5 3 -10 14 -10 12 0 21 -4 21 -8 0 -5 7 -9 15 -9 12 0 12 3 3 16 -8 10 -4
9 9 -3 14 -11 31 -16 43 -13 15 4 20 2 17 -7 -3 -7 1 -13 8 -13 7 0 11 7 8 16
-3 11 0 10 11 -3 9 -11 16 -17 16 -13 0 4 10 3 21 -4 12 -6 19 -7 15 -1 -4 6
2 8 14 5 11 -3 20 -10 20 -15 0 -6 9 -8 20 -5 11 3 20 1 20 -3 0 -4 9 -6 20
-3 11 3 20 0 20 -6 0 -6 14 -11 31 -11 16 0 28 -3 26 -7 -3 -5 12 -9 34 -11
21 -1 51 -7 65 -12 14 -6 30 -8 35 -4 5 3 9 1 9 -4 0 -6 9 -8 20 -5 11 3 20 1
20 -4 0 -5 16 -10 36 -11 20 -1 43 -7 52 -14 13 -11 14 -11 8 0 -6 11 -2 11
20 -1 16 -8 35 -12 43 -9 10 3 11 0 5 -9 -6 -11 -3 -10 11 1 15 12 17 12 10 1
-6 -11 -3 -13 12 -9 11 3 31 -1 44 -8 32 -18 48 -18 23 1 -18 14 -18 14 4 8
12 -3 22 -9 22 -14 0 -5 13 -9 30 -9 17 0 34 -7 40 -18 11 -16 11 -16 6 1 -7
21 1 22 20 2 8 -8 22 -11 31 -8 10 4 14 2 10 -4 -5 -8 13 -11 53 -11 37 1 66
-5 77 -13 11 -9 14 -10 9 -1 -4 6 -2 12 3 12 6 0 11 -5 11 -11 0 -6 8 -9 18
-6 9 2 31 -3 47 -11 28 -14 29 -14 16 2 -12 14 -12 16 3 10 9 -3 16 -10 16
-16 0 -5 22 -7 49 -5 28 1 48 0 45 -4 -2 -4 0 -10 6 -14 5 -3 10 0 10 7 0 10
2 10 9 -1 5 -8 18 -12 29 -9 14 4 19 2 16 -6 -3 -7 2 -13 10 -13 8 0 12 5 9
11 -4 6 1 5 10 -3 9 -7 26 -11 37 -8 11 3 20 0 20 -6 0 -7 5 -6 11 3 8 12 12
12 16 2 4 -9 8 -10 18 -2 9 8 17 7 28 -5 12 -11 16 -12 20 -2 3 9 7 9 18 0 8
-6 33 -10 57 -10 23 1 42 -2 42 -7 0 -5 7 -3 15 4 12 10 16 9 21 -4 3 -9 10
-13 15 -10 5 3 9 0 9 -6 0 -6 5 -8 12 -4 17 11 48 12 48 3 0 -4 9 -5 20 -2 13
3 20 0 20 -8 0 -11 2 -11 10 1 5 8 10 10 10 5 0 -6 28 -11 66 -12 39 -1 70 -6
74 -13 6 -9 9 -9 15 -1 4 8 11 9 19 2 6 -5 27 -9 46 -9 72 1 101 -2 96 -10 -3
-5 14 -8 38 -8 23 -1 48 -4 54 -8 7 -4 12 -3 12 2 0 10 54 7 71 -3 5 -4 9 -1
9 6 0 9 4 9 15 -1 8 -6 19 -9 25 -5 5 3 10 2 10 -4 0 -6 39 -9 96 -8 69 1 98
-3 103 -12 7 -11 10 -11 14 0 4 11 8 11 14 2 4 -6 24 -10 43 -9 19 1 41 -2 48
-7 8 -6 12 -5 12 4 0 8 6 6 16 -7 8 -10 13 -14 10 -7 -4 6 -2 14 4 18 5 3 10
-1 10 -9 0 -12 14 -14 70 -12 39 1 70 -2 70 -7 0 -5 6 -4 14 2 10 8 16 9 21 1
3 -5 14 -7 23 -2 9 4 37 6 62 5 25 0 60 -2 78 -2 19 -1 31 -5 27 -11 -4 -7
172 -10 520 -10 399 0 524 3 519 12 -5 7 -2 9 8 5 9 -3 19 -3 22 0 10 10 66 9
66 -2 0 -7 3 -7 8 0 8 12 42 13 60 2 7 -5 12 -3 12 5 0 10 2 10 9 -1 7 -11 9
-11 14 0 4 12 7 11 16 -1 8 -12 11 -12 11 -1 0 11 3 11 15 1 12 -10 15 -10 15
1 0 12 2 12 9 0 7 -11 10 -11 15 0 5 11 7 11 12 2 4 -10 13 -9 40 2 25 10 34
11 34 2 0 -7 5 -5 10 4 9 15 63 18 98 4 7 -3 10 0 7 6 -4 6 1 9 11 7 11 -2 18
2 17 8 -1 6 5 11 13 11 7 0 14 -4 14 -9 0 -5 7 -5 16 0 9 5 32 6 50 2 21 -5
34 -4 34 2 0 6 6 6 14 -1 10 -8 16 -9 21 -1 4 7 13 7 27 -1 16 -8 19 -8 13 1
-5 8 -3 11 6 8 8 -3 28 1 46 8 25 11 33 11 36 1 3 -6 6 -7 6 -2 1 11 62 12 79
1 7 -4 12 -3 12 3 0 6 7 8 15 5 8 -4 15 -2 15 4 0 5 10 9 23 8 12 -1 25 3 30
9 4 6 10 5 16 -4 5 -7 11 -9 14 -5 6 10 58 11 74 1 6 -4 13 0 17 8 3 8 10 15
16 15 6 0 8 -6 4 -12 -6 -10 -5 -10 7 -1 18 14 138 21 143 8 3 -6 5 -5 5 1 1
7 14 10 32 8 20 -3 28 0 23 7 -5 8 3 10 25 7 18 -3 34 -1 37 4 3 4 14 3 25 -2
12 -7 19 -7 19 -1 0 6 7 7 17 4 11 -4 14 -3 9 5 -4 7 -2 12 3 12 6 0 11 -4 11
-10 0 -5 5 -10 11 -10 5 0 7 5 3 12 -5 8 -2 9 10 5 9 -4 15 -3 12 2 -3 5 1 11
9 15 8 3 15 0 15 -7 0 -8 3 -8 9 2 5 7 14 10 20 7 6 -4 11 -2 11 5 0 8 5 7 17
-2 11 -10 14 -10 9 -1 -9 15 6 16 22 0 7 -7 12 -8 12 -2 0 6 6 11 13 11 6 0
21 4 31 9 15 6 18 4 12 -7 -4 -8 -1 -6 7 4 11 13 17 15 22 7 6 -9 10 -9 16 1
8 12 11 11 19 -1 6 -10 10 -11 10 -3 0 7 7 10 17 6 10 -4 14 -2 9 5 -3 6 -2
14 4 17 6 4 10 3 9 -2 -4 -21 3 -22 22 -4 23 21 106 33 113 16 3 -7 5 -7 5 0
1 6 25 9 57 8 47 -1 55 1 50 14 -5 13 -4 14 9 3 12 -10 15 -10 15 1 0 12 2 12
9 1 6 -11 10 -10 15 4 6 15 9 16 16 4 8 -12 10 -12 15 1 4 11 16 14 42 11 28
-4 34 -2 27 9 -7 12 -5 12 9 0 14 -11 18 -11 23 3 5 12 10 13 25 5 10 -5 19
-6 19 -1 0 5 6 9 13 9 6 0 21 4 31 9 15 6 18 4 12 -7 -4 -8 0 -5 8 5 11 14 16
15 16 6 0 -9 5 -7 15 6 13 16 16 17 25 4 7 -12 10 -12 10 -1 0 7 6 11 15 7 8
-3 15 0 15 6 0 6 6 5 17 -3 14 -12 16 -12 8 0 -6 11 -4 13 7 8 9 -3 21 0 28 6
10 9 11 9 6 -3 -5 -10 -3 -9 7 2 11 14 16 15 27 5 10 -9 11 -9 6 1 -9 16 6 16
23 -1 10 -10 11 -8 5 8 -7 18 -6 19 11 5 11 -9 16 -10 11 -2 -5 8 0 12 16 12
13 0 28 4 33 9 13 12 67 17 83 8 6 -5 12 -4 12 2 0 6 7 8 15 5 8 -4 15 -2 15
4 0 6 11 9 25 7 14 -1 25 2 25 7 0 6 6 8 14 5 9 -4 17 1 19 11 4 16 5 16 6 0
1 -11 6 -15 16 -12 8 4 13 9 11 13 -2 3 10 5 27 5 20 -1 38 5 47 17 9 11 30
19 53 21 20 1 37 6 37 11 0 5 8 3 17 -4 14 -12 16 -12 8 0 -6 11 -4 13 8 8 10
-3 17 -2 17 2 0 5 9 7 20 4 11 -3 27 0 35 7 8 6 20 8 26 4 9 -5 10 -2 6 9 -7
20 4 22 21 5 9 -9 12 -9 12 3 0 9 10 14 32 13 21 -1 41 6 56 19 12 11 22 17
22 13 0 -5 8 -2 17 5 11 10 14 10 9 2 -4 -7 -2 -13 3 -13 6 0 11 5 11 11 0 8
5 8 15 -1 12 -10 15 -10 15 0 0 7 6 10 14 7 8 -3 17 -1 20 6 3 9 5 9 5 0 1 -7
6 -13 12 -13 5 0 7 5 4 10 -3 6 -1 10 5 10 6 0 8 5 5 10 -3 6 -1 10 4 10 6 0
11 -6 11 -12 0 -10 3 -9 9 1 5 7 14 10 20 7 6 -4 11 -2 11 4 0 7 9 9 23 5 21
-7 21 -6 3 7 -18 14 -17 15 14 10 23 -3 31 -1 26 7 -4 6 -2 11 3 11 6 0 11 -5
11 -11 0 -6 7 -3 16 5 8 9 19 14 24 11 5 -3 11 1 13 7 4 10 6 10 6 1 1 -7 6
-13 12 -13 5 0 8 4 5 9 -8 13 52 19 65 7 9 -8 10 -7 4 3 -6 11 -4 13 10 7 16
-6 16 -4 4 11 -9 11 -10 14 -1 9 7 -4 12 -2 12 4 0 6 5 8 10 5 6 -4 8 -12 4
-18 -3 -7 3 -3 13 8 10 11 26 19 36 17 10 -2 24 1 31 7 9 7 16 7 23 0 8 -8 17
-4 31 11 13 15 27 20 38 16 14 -5 15 -4 4 9 -11 13 -10 14 5 9 12 -5 16 -4 12
3 -5 7 1 9 15 5 14 -3 19 -1 14 6 -4 7 2 9 20 6 16 -3 23 -1 19 6 -3 6 0 7 9
4 9 -4 16 -1 16 6 0 9 4 9 17 -1 14 -12 16 -12 8 0 -6 11 -4 13 8 8 10 -3 17
-2 17 4 0 6 4 8 9 4 6 -3 14 3 20 12 10 17 10 17 11 -2 0 -17 2 -17 10 -5 5 8
10 11 10 6 0 -4 9 2 20 15 18 21 19 22 14 4 -5 -18 -4 -18 14 2 21 24 38 32
27 12 -4 -6 2 -5 14 3 12 7 21 16 21 20 0 5 5 8 11 8 5 0 7 -6 4 -13 -4 -6 -1
-5 7 3 7 9 21 14 32 12 12 -3 16 0 11 8 -5 9 -1 10 15 5 15 -5 20 -4 16 4 -11
17 3 34 18 22 9 -8 19 -5 34 10 12 11 22 15 22 8 0 -9 3 -9 14 0 11 9 15 9 19
-1 4 -8 6 -7 6 5 1 20 17 23 24 5 4 -10 6 -10 6 0 1 6 8 12 17 12 8 0 13 4 9
9 -3 6 3 10 12 10 52 2 73 6 73 12 0 4 -6 9 -12 11 -7 3 -2 7 10 10 15 4 20 3
15 -5 -7 -12 19 6 46 31 9 9 17 10 26 2 9 -8 14 -6 19 7 6 15 8 15 17 3 7 -12
10 -11 15 8 5 17 10 20 19 12 10 -8 18 -4 33 15 11 14 23 21 27 16 3 -6 12 -8
20 -5 8 4 12 10 9 15 -3 5 -1 9 5 9 5 0 12 -6 14 -12 4 -10 6 -10 6 0 1 7 5
10 11 7 6 -3 7 1 4 9 -3 9 -1 16 5 16 6 0 11 -5 11 -11 0 -5 5 -7 10 -4 6 4 7
12 4 18 -5 9 -4 9 6 0 10 -9 16 -9 27 2 7 8 20 12 28 8 11 -4 13 -1 9 11 -7
18 15 19 28 1 4 -6 8 -2 8 9 0 12 5 16 16 12 10 -4 13 -2 8 6 -5 8 -2 9 10 5
14 -5 17 -3 13 8 -7 18 9 30 19 14 5 -8 3 -9 -6 -4 -9 6 -11 4 -5 -5 6 -10 11
-10 20 3 7 9 15 14 18 10 4 -3 7 -1 7 5 0 6 7 9 17 5 12 -5 14 -3 8 7 -5 8 -3
11 6 8 8 -3 23 2 34 11 18 15 19 15 6 -1 -8 -11 -9 -18 -3 -18 6 0 14 9 17 21
4 11 12 18 18 16 7 -2 17 3 24 12 8 10 12 11 13 4 0 -7 6 -10 14 -7 8 3 12 12
9 20 -3 8 0 14 6 14 6 0 11 -4 11 -10 0 -5 7 -7 15 -4 8 4 15 10 15 16 0 5 -6
6 -12 2 -8 -4 -10 -3 -5 2 12 12 30 12 39 -1 4 -5 8 0 8 12 0 12 5 25 10 28 6
4 10 3 9 -2 -3 -19 2 -23 15 -11 8 7 12 16 9 21 -2 4 1 7 6 7 6 0 11 -6 11
-12 0 -7 7 -4 16 7 8 11 24 19 34 17 15 -2 18 1 14 13 -7 17 15 17 28 0 4 -5
8 1 8 14 0 19 3 21 14 12 12 -10 17 -8 26 8 6 12 14 20 18 20 22 -4 32 2 26
14 -5 7 0 6 11 -3 15 -12 17 -12 10 -1 -6 11 -4 13 9 8 14 -5 17 -3 12 8 -3 8
-1 15 3 15 5 0 11 -6 13 -12 3 -8 9 -4 17 10 13 24 36 29 45 10 4 -7 4 -3 2 9
-4 24 9 32 17 11 4 -10 6 -10 6 0 1 6 7 12 15 12 8 0 16 7 20 15 3 9 12 12 22
8 11 -4 15 -2 11 4 -5 7 1 9 15 5 16 -4 19 -2 13 8 -6 10 -4 12 10 6 15 -5 16
-4 6 8 -10 12 -8 13 10 9 17 -5 20 -3 14 8 -6 11 -5 12 6 1 11 -10 17 -8 32
10 10 13 16 17 12 10 -6 -11 -3 -11 13 -1 12 7 18 18 14 24 -3 5 3 3 13 -5 11
-9 16 -10 11 -3 -4 7 -2 21 4 30 11 17 11 17 6 -1 -5 -14 -2 -17 10 -12 8 3
18 6 20 6 2 0 4 7 4 16 0 14 2 15 17 3 11 -10 14 -10 9 -1 -4 7 -2 12 4 12 6
0 8 5 5 10 -3 6 -2 10 4 10 5 0 12 -6 14 -12 4 -8 8 -5 12 8 5 16 12 20 27 16
13 -3 19 -1 15 5 -4 6 0 14 9 17 10 4 13 2 8 -7 -6 -9 -5 -9 8 0 8 7 18 10 22
6 4 -4 4 1 0 11 -6 16 -4 18 15 13 18 -4 20 -3 11 8 -10 11 -8 13 8 10 12 -2
23 3 26 12 5 13 9 13 23 2 12 -10 14 -10 9 -1 -4 7 -2 12 4 12 6 0 9 3 6 8 -2
4 9 15 26 25 25 15 29 15 18 2 -11 -13 -10 -14 4 -9 9 3 16 11 16 16 0 6 8 7
18 3 14 -5 15 -4 5 6 -19 19 -16 34 4 18 14 -12 16 -12 8 0 -6 11 -4 13 8 8
15 -6 22 3 18 25 0 4 6 5 14 2 8 -4 12 -11 8 -17 -4 -6 -1 -7 6 -3 7 5 10 14
7 22 -3 8 -1 14 4 14 6 0 10 -6 10 -12 0 -8 3 -9 8 -3 4 6 19 16 35 24 30 16
37 34 10 25 -15 -5 -15 -4 -3 4 8 6 17 9 21 6 4 -2 11 0 14 6 5 8 12 7 23 -2
12 -10 14 -10 8 0 -4 7 -2 12 4 12 6 0 8 5 5 10 -3 6 1 10 10 10 9 0 14 -4 10
-9 -3 -5 0 -13 7 -17 7 -4 10 -4 6 1 -4 4 -2 15 5 23 6 9 7 13 1 9 -6 -3 -11
0 -11 7 0 8 8 11 17 9 10 -3 20 3 24 12 5 14 9 15 21 5 12 -10 15 -9 15 4 0
19 16 21 24 4 3 -7 4 -4 3 7 -2 16 3 20 23 18 14 -1 19 0 13 3 -21 9 -14 27 8
21 15 -4 19 -2 15 8 -3 8 0 17 6 21 6 4 8 3 4 -4 -3 -6 -2 -13 4 -17 5 -3 10
1 10 10 0 12 6 15 23 10 17 -5 19 -4 7 4 -12 8 -12 13 -2 23 9 9 12 9 12 0 0
-7 5 -12 11 -12 5 0 7 4 4 10 -3 5 -1 10 5 10 6 0 8 5 5 10 -3 6 -2 10 4 10 5
0 12 -6 14 -12 4 -8 8 -4 12 10 4 12 12 22 17 22 5 0 6 -6 3 -13 -4 -6 2 -1
13 12 12 15 24 21 32 16 10 -6 12 -2 7 14 -5 19 -3 20 11 9 13 -11 15 -11 9 5
-3 9 -2 17 3 17 6 0 10 -6 10 -12 0 -9 3 -9 9 1 5 8 7 21 4 30 -4 11 0 9 10
-4 14 -18 16 -18 17 -3 0 10 10 23 23 29 19 10 21 10 12 -2 -5 -8 -3 -7 7 3 9
10 23 18 32 18 9 0 16 7 16 15 0 9 6 12 16 8 10 -4 17 1 21 16 3 11 9 18 14
15 5 -3 9 0 9 7 0 7 3 10 6 6 4 -3 13 0 20 8 8 8 21 12 29 8 11 -4 13 -1 9 11
-3 9 -11 13 -18 9 -6 -3 -7 -2 -3 3 5 5 12 9 15 9 4 0 14 4 22 10 13 8 13 7 1
-8 -12 -15 -12 -17 2 -11 16 6 33 41 29 57 -1 5 2 6 7 3 5 -4 8 -15 6 -26 -2
-12 0 -18 6 -15 5 4 7 11 4 16 -7 11 36 29 49 21 5 -3 6 0 2 6 -4 7 -3 12 2
12 6 0 9 8 8 17 0 12 5 17 16 15 9 -1 20 3 24 9 5 8 2 10 -7 5 -8 -4 -3 1 11
12 13 11 27 20 30 20 19 -2 30 3 26 11 -6 9 22 26 37 23 4 -1 7 3 7 9 0 5 4 8
9 5 5 -4 7 3 4 14 -3 12 0 20 6 20 7 0 10 -4 6 -9 -3 -5 -1 -13 5 -16 6 -4 9
-1 8 7 -2 7 2 12 9 11 8 -2 10 4 6 15 -3 9 -3 14 2 10 4 -4 14 0 22 10 9 10
11 11 7 2 -7 -13 -5 -13 9 -2 9 8 21 11 27 7 6 -4 10 -3 9 2 -3 19 2 33 12 33
5 0 7 -5 3 -11 -4 -7 7 -1 24 11 17 13 29 27 26 32 -6 9 10 23 70 63 16 11 27
15 23 9 -3 -6 0 -11 8 -11 11 0 12 5 3 21 -10 18 -9 19 4 8 12 -10 18 -9 28 3
7 8 17 12 24 8 7 -5 7 -2 -1 8 -21 26 0 44 59 51 13 2 14 6 7 20 -6 12 -6 18
1 18 5 0 10 -4 10 -10 0 -5 4 -10 10 -10 5 0 7 8 3 17 -3 10 -2 15 2 11 5 -5
14 1 22 12 8 11 20 20 26 20 7 0 4 -7 -5 -14 -10 -7 -18 -17 -18 -21 0 -5 9 0
19 9 11 10 18 26 16 37 -2 10 -1 18 3 18 20 -3 52 15 57 32 4 10 11 19 17 19
6 0 5 -7 -3 -17 -12 -15 -12 -16 1 -8 8 6 18 10 22 10 3 0 10 4 15 9 4 5 3 6
-3 3 -7 -4 -15 1 -18 10 -4 10 -4 14 0 11 3 -4 17 6 31 23 21 25 28 28 41 17
13 -11 15 -10 10 4 -4 9 -1 19 7 22 10 3 12 0 8 -11 -4 -11 -2 -14 5 -9 7 4
12 15 12 25 0 9 5 22 12 29 15 15 42 16 32 0 -4 -7 -3 -8 5 -4 9 6 9 11 -1 24
-11 13 -10 15 4 9 19 -7 43 24 30 38 -4 4 4 4 18 0 24 -7 25 -7 5 9 -14 11
-15 15 -5 14 8 -2 14 3 12 10 -1 8 2 11 7 8 5 -4 23 7 40 23 17 17 33 26 36
20 4 -5 1 -9 -4 -9 -6 0 -11 -5 -11 -11 0 -8 4 -8 14 1 8 6 12 18 10 25 -4 10
1 12 18 8 16 -3 19 -2 10 5 -11 7 -8 11 13 16 14 4 31 4 38 1 7 -4 4 0 -5 8
-17 13 -17 15 0 31 10 9 24 16 31 16 7 0 9 5 6 10 -3 6 -2 10 4 10 5 0 12 -6
14 -12 4 -8 6 -7 6 3 1 9 8 20 17 23 9 3 12 11 8 18 -5 8 -2 9 9 5 10 -4 16
-2 14 6 -1 7 4 11 11 9 8 -1 11 2 7 9 -5 8 -10 8 -18 0 -6 -6 -16 -11 -21 -11
-6 0 3 9 19 20 17 11 35 18 42 16 6 -3 19 5 30 17 l18 22 -22 -19 c-13 -11
-23 -16 -23 -11 0 11 32 34 48 35 8 0 10 -5 6 -12 -4 -8 -3 -10 2 -5 5 5 9 14
9 20 0 7 5 12 12 12 6 0 14 3 18 7 9 9 -16 5 -32 -5 -7 -5 -13 -4 -13 2 0 5 9
13 20 16 11 4 17 11 14 17 -4 6 3 5 16 -2 20 -11 21 -10 11 8 -10 18 -8 20 14
17 14 -1 25 2 25 6 0 5 -4 9 -10 9 -5 0 -10 5 -10 11 0 6 7 9 15 5 8 -3 15 -1
15 4 0 6 5 10 11 10 5 0 7 -5 3 -12 -4 -6 -3 -8 4 -5 5 4 9 18 8 32 -2 13 2
23 7 22 6 -1 11 3 12 10 0 6 4 15 9 20 5 4 6 3 3 -3 -4 -7 0 -14 8 -17 9 -4
12 -1 9 7 -3 7 3 19 13 27 17 13 17 13 3 -6 -14 -19 -14 -19 3 -6 14 11 15 17
5 30 -7 9 -8 13 -3 8 4 -4 17 5 27 20 20 31 24 24 7 -10 l-10 -22 19 22 c11
12 22 19 26 16 6 -6 10 12 7 30 -1 4 5 18 14 30 8 12 15 17 15 11 0 -5 -5 -15
-12 -22 -9 -9 -9 -12 0 -12 7 0 12 5 12 11 0 5 4 8 9 5 5 -3 8 2 7 12 0 9 4
16 11 15 7 -2 10 4 7 12 -4 10 0 15 11 15 10 0 13 -5 9 -12 -4 -6 -3 -8 4 -5
5 4 9 18 8 31 -2 18 1 23 13 21 26 -5 51 19 46 43 -3 20 -1 21 17 11 12 -6 18
-7 14 -1 -3 5 1 12 9 16 8 3 12 12 9 20 -4 11 0 13 15 9 13 -3 21 -1 21 6 0 7
-4 9 -10 6 -5 -3 -10 -1 -10 4 0 6 5 11 11 11 5 0 7 5 3 11 -4 7 1 7 16 -1 20
-11 21 -10 11 8 -10 18 -8 20 14 17 14 -1 25 2 25 6 0 5 -4 9 -10 9 -5 0 -10
5 -10 11 0 6 7 9 15 5 8 -3 15 -1 15 4 0 6 5 10 11 10 5 0 7 -6 3 -12 -4 -8
-3 -10 2 -5 5 5 9 13 9 18 0 5 14 21 30 35 21 17 23 22 8 15 -34 -17 -41 -13
-10 7 15 10 24 22 20 25 -3 4 -1 7 5 7 7 0 12 -4 12 -10 0 -5 4 -10 9 -10 5 0
7 9 4 20 -3 12 0 20 6 20 7 0 9 -5 5 -12 -4 -6 -3 -8 4 -4 6 3 9 15 7 26 -3
18 -1 19 18 9 12 -7 19 -8 15 -4 -11 11 12 36 25 28 5 -3 7 -1 4 4 -4 6 0 16
9 23 12 11 12 15 2 21 -10 7 -9 9 4 9 9 0 19 -6 22 -12 3 -7 3 -1 1 15 -2 15
1 27 6 27 6 0 7 4 4 10 -4 6 1 7 12 3 16 -6 17 -5 3 12 -9 11 -10 16 -2 11 6
-4 12 -3 12 3 0 6 8 7 18 4 14 -6 15 -4 4 9 -10 13 -10 18 -1 24 7 4 9 3 6 -3
-4 -6 -1 -13 7 -16 10 -4 13 1 11 18 -1 13 3 23 9 22 6 -1 10 3 9 9 -1 6 9 10
22 8 22 -2 24 0 13 19 -11 21 -10 21 7 7 17 -14 18 -13 12 3 -5 13 -2 17 11
15 10 -2 16 3 14 11 -1 7 2 19 8 25 5 7 7 15 4 19 -9 8 32 27 42 19 5 -4 3 0
-4 9 -10 13 -9 19 5 30 16 13 17 12 5 -3 -12 -15 -11 -17 7 -15 13 1 21 8 21
19 0 16 3 17 23 7 l22 -12 -20 23 c-11 13 -14 20 -7 16 6 -4 12 -2 12 4 0 6 5
8 13 4 7 -5 6 0 -3 11 -10 13 -11 16 -2 11 14 -9 52 19 52 38 0 6 -10 0 -21
-14 -20 -24 -16 -9 4 18 7 9 13 10 24 0 11 -9 13 -8 11 3 -2 8 3 13 11 11 12
-3 12 -1 0 14 -9 12 -10 15 -1 10 8 -5 15 1 21 16 5 13 7 25 6 28 -2 3 6 7 17
7 12 1 26 7 32 14 8 9 8 10 -1 5 -6 -3 -15 -1 -19 6 -4 7 -4 10 1 6 4 -4 16
-3 27 3 13 7 17 17 13 32 -5 17 -4 19 4 7 9 -13 12 -13 23 -1 7 8 8 11 2 8 -6
-3 -11 0 -11 7 0 8 6 12 14 9 9 -4 11 0 7 10 -4 12 -1 15 15 12 14 -2 18 1 15
10 -3 8 4 20 15 27 12 7 21 18 21 25 0 7 6 13 13 13 8 0 7 4 -3 10 -12 8 -11
10 8 10 15 0 22 6 22 20 0 10 7 23 16 28 9 5 15 13 15 18 -1 5 5 9 12 9 6 0
13 6 13 13 1 6 2 17 3 22 0 6 7 10 15 10 8 0 18 5 22 12 4 6 3 8 -3 5 -5 -3
-10 0 -10 8 0 8 4 12 9 9 11 -7 34 17 43 45 4 12 9 20 12 17 4 -3 12 -1 20 5
10 9 11 15 2 26 -10 11 -8 12 5 7 11 -4 16 -2 14 6 -2 8 7 19 20 25 33 18 41
29 14 20 -23 -7 -24 -7 -5 12 10 11 21 18 24 17 3 -2 11 8 17 21 7 14 16 25
22 25 6 0 8 5 5 10 -3 6 -2 10 4 10 6 0 7 7 4 17 -4 11 -3 14 5 9 8 -4 16 3
22 18 5 14 17 26 25 26 10 0 15 7 13 18 -2 9 2 16 8 15 7 -1 15 9 18 22 4 14
11 25 17 25 7 0 6 6 -2 17 -8 9 -9 14 -2 10 6 -4 18 -4 27 -1 15 6 15 8 -1 19
-17 13 -17 13 2 12 13 -1 20 4 19 15 -1 11 4 14 14 11 10 -4 13 -2 8 5 -4 7
-2 12 4 12 7 0 9 7 6 16 -3 9 -2 12 5 9 6 -4 9 0 7 8 -2 9 0 15 4 14 13 -4 59
47 54 60 -3 8 2 13 12 13 14 0 14 2 3 9 -11 7 -9 10 8 16 19 6 20 9 9 23 -10
12 -10 14 0 8 7 -4 12 -2 12 4 0 6 5 8 12 4 8 -5 9 -2 5 10 -4 10 -3 15 3 11
6 -3 13 2 17 12 4 10 13 24 20 31 7 7 13 20 13 28 0 8 5 14 11 14 8 0 9 4 0
13 -13 17 -4 28 17 20 12 -5 14 -2 9 11 -5 11 -3 15 5 10 8 -5 9 -2 4 11 -5
15 -4 16 8 6 13 -11 15 -9 11 8 -2 14 3 25 17 32 15 8 17 13 8 19 -9 6 -7 10
8 14 11 4 22 17 24 29 2 12 9 21 16 19 10 -2 11 4 7 19 -5 16 -4 19 6 14 9 -6
11 -3 6 8 -4 10 -2 16 6 14 7 -1 11 6 11 15 -1 10 3 15 8 12 5 -3 12 3 15 15
3 12 10 21 17 21 6 0 4 5 -4 10 -13 8 -13 10 2 10 20 0 38 29 30 49 -2 8 0 11
6 7 11 -7 25 21 16 35 -3 5 2 9 10 9 9 0 16 7 16 16 0 8 5 12 10 9 6 -4 13 7
16 24 4 17 10 31 15 31 5 0 5 7 2 17 -4 11 -3 14 5 9 7 -4 12 -2 12 4 0 6 5 8
13 4 9 -6 9 -5 0 7 -11 13 -8 20 12 39 14 13 23 30 21 37 -3 7 3 19 14 25 11
7 20 17 20 22 0 5 8 15 18 23 9 8 12 12 5 9 -6 -4 -15 -2 -18 4 -4 6 -3 10 2
9 18 -3 33 2 33 11 0 5 -8 7 -17 4 -10 -4 -6 3 10 13 15 11 24 22 21 26 -4 4
1 9 10 13 9 3 13 10 10 16 -3 5 4 19 16 30 17 16 19 22 8 29 -10 7 -10 9 3 9
9 0 23 8 30 17 10 11 10 14 2 9 -7 -4 -13 -3 -13 2 0 6 8 13 17 16 15 6 15 8
3 16 -8 6 -10 10 -4 10 6 0 21 9 34 20 13 11 19 20 14 20 -6 0 -16 -6 -24 -13
-7 -6 -5 0 6 15 10 15 22 28 27 28 4 0 7 5 7 11 0 5 -6 7 -12 3 -8 -4 -10 -3
-5 2 5 5 14 9 20 9 5 0 12 6 15 14 3 9 0 11 -9 7 -8 -4 -6 -1 4 7 14 11 15 16
5 20 -8 3 -6 6 6 6 12 1 16 6 12 17 -4 10 -2 13 6 8 7 -5 9 -2 5 9 -4 10 -2
14 6 11 8 -3 13 5 14 18 1 12 10 28 19 35 10 7 14 13 10 13 -5 0 -3 7 4 15 6
8 8 20 4 26 -4 7 -3 9 3 6 6 -4 17 1 24 10 10 12 10 14 2 9 -9 -5 -13 -1 -13
10 0 10 3 15 6 11 9 -9 32 16 27 29 -2 7 0 15 6 19 6 3 11 11 11 16 0 6 -5 7
-12 3 -7 -4 -8 -3 -4 5 4 6 11 9 16 6 11 -7 22 24 13 37 -3 6 -1 8 4 5 6 -4
17 1 24 10 10 12 10 14 2 9 -8 -4 -13 -1 -13 8 0 9 6 15 13 13 7 -1 11 6 9 17
-2 12 1 16 9 10 9 -5 11 -1 7 14 -4 12 -2 20 3 16 5 -3 9 2 9 11 0 9 4 13 10
10 6 -3 7 1 4 9 -3 9 -1 16 6 16 6 0 8 5 5 10 -3 6 -1 10 4 10 6 0 11 7 11 15
0 9 7 27 16 40 9 13 13 28 10 34 -3 5 1 12 10 15 9 4 14 13 10 22 -3 8 -2 13
2 11 4 -3 12 1 19 8 10 11 10 15 0 19 -8 3 -5 11 11 25 15 13 18 21 10 24 -10
4 -10 6 -1 6 7 1 17 11 24 22 8 16 8 20 -1 14 -8 -5 -8 -1 1 13 7 12 17 18 21
16 11 -7 10 10 -2 24 -6 6 -7 10 -3 7 9 -7 35 33 29 44 -3 5 1 12 10 15 9 4
14 13 10 21 -3 8 -1 15 4 15 5 0 6 7 3 17 -5 12 -3 14 7 8 10 -6 12 -4 7 8 -4
10 -2 17 4 17 6 0 9 6 6 14 -3 8 2 20 11 28 16 12 16 11 2 -7 -14 -19 -14 -19
2 -6 10 7 15 17 12 22 -2 5 3 21 13 36 14 21 14 25 3 18 -12 -7 -13 -6 -3 7 7
8 10 18 6 21 -3 4 -1 7 6 7 8 0 11 6 7 16 -3 8 -2 13 2 11 8 -6 33 19 26 25
-2 3 2 21 10 40 9 20 12 39 8 43 -4 5 1 5 11 2 10 -4 16 -3 12 2 -3 5 -1 13 5
16 8 5 8 11 0 20 -7 9 -8 14 0 17 9 3 20 35 22 65 1 9 5 10 13 3 9 -7 12 -5
12 7 -1 27 14 76 28 93 21 26 29 44 16 36 -6 -4 -2 9 9 29 11 20 15 33 8 29
-6 -4 -2 7 11 24 12 18 19 37 15 44 -5 8 -2 9 12 4 15 -6 16 -5 7 5 -10 10 -9
15 5 26 16 12 16 13 -1 7 -17 -6 -18 -5 -6 15 8 11 18 21 23 21 4 0 2 8 -5 17
-10 11 -10 14 -1 9 7 -4 12 -1 12 9 0 9 5 13 10 10 14 -9 12 8 -2 25 -7 8 -9
11 -4 7 9 -7 35 20 36 38 0 6 -5 3 -10 -5 -5 -8 -10 -10 -10 -5 1 18 27 45 36
37 4 -4 2 2 -6 12 -8 11 -10 17 -4 13 11 -6 23 37 25 86 0 9 4 15 9 12 4 -3
10 2 14 10 3 8 0 15 -7 15 -8 0 -8 3 2 9 7 5 10 14 7 20 -4 6 -2 11 4 11 7 0
10 6 7 14 -3 8 2 16 15 19 11 3 18 10 15 15 -4 4 0 21 8 36 8 14 10 24 5 21
-6 -3 -7 1 -4 9 3 9 11 16 17 16 6 0 7 3 4 7 -4 3 -2 12 4 20 9 10 8 13 -2 13
-9 0 -10 3 -3 8 15 10 26 40 31 87 2 22 10 46 16 54 9 12 9 13 -1 7 -7 -4 -3
9 8 28 13 24 16 36 7 36 -8 0 -8 3 2 9 8 5 10 14 6 22 -6 9 -4 11 7 6 17 -6
20 23 3 35 -6 4 -2 8 8 8 10 0 15 5 12 10 -3 6 -1 10 6 10 6 0 9 8 6 19 -3 11
1 22 8 25 8 2 11 15 8 30 -4 17 -1 26 7 26 10 0 10 3 0 15 -7 9 -8 15 -2 15 5
0 13 7 16 16 4 10 2 13 -7 9 -6 -4 -1 3 12 14 14 13 18 21 10 21 -10 0 -10 3
-3 8 6 4 14 27 18 52 3 25 7 50 8 57 1 7 8 15 16 18 12 4 12 8 1 22 -10 12
-10 14 -1 9 8 -5 12 1 12 21 0 16 6 35 13 42 10 11 9 12 -3 6 -12 -7 -13 -6
-3 7 7 8 10 18 6 21 -3 4 2 7 13 8 10 0 14 3 7 5 -7 3 -9 12 -6 20 3 7 10 11
16 7 6 -4 7 -1 2 8 -12 18 -14 49 -3 43 4 -3 8 2 8 11 0 10 5 14 13 9 9 -5 9
-4 1 5 -13 15 -6 61 10 61 6 0 4 5 -4 10 -12 8 -12 10 -1 10 9 0 12 9 9 29 -2
17 0 27 5 24 5 -3 7 3 5 13 -2 11 3 24 12 31 12 10 13 12 1 13 -11 0 -10 4 5
16 10 8 13 12 5 8 -11 -6 -13 -3 -6 12 5 10 9 29 9 42 1 12 4 22 7 22 4 0 5
13 3 30 -2 16 1 32 6 35 6 3 10 17 10 31 0 13 4 24 8 24 4 0 8 8 8 18 1 9 3
31 6 47 12 65 20 85 32 78 6 -4 4 2 -4 12 -8 10 -10 16 -4 12 7 -4 11 12 12
50 0 32 5 59 12 63 10 6 9 9 0 12 -9 3 -8 8 4 20 12 12 13 18 3 21 -6 3 -7 6
-2 6 6 1 10 17 9 36 -1 19 2 32 7 29 5 -3 9 9 9 26 0 17 4 29 9 25 5 -3 13 0
17 6 4 7 3 9 -3 6 -6 -4 -10 6 -9 23 1 17 4 30 8 30 4 0 5 12 2 26 -3 15 -1
23 5 20 5 -4 9 16 9 48 -1 30 4 62 11 70 9 11 9 15 -1 18 -10 4 -10 8 -1 19
13 17 20 70 10 85 -4 7 1 15 10 18 15 6 15 8 3 16 -8 6 -10 10 -4 10 7 0 11
14 10 35 -1 19 3 35 7 35 5 0 7 7 3 15 -3 8 0 15 7 15 8 0 6 4 -3 10 -12 7
-12 10 -1 10 7 0 11 6 8 15 -4 8 -2 17 3 20 5 3 7 12 3 20 -3 9 1 15 8 15 11
0 11 3 -1 10 -10 6 -11 10 -2 10 8 0 12 19 12 60 0 37 4 60 11 60 7 0 9 12 7
30 -3 17 0 33 5 37 5 3 3 9 -4 14 -11 7 -11 9 -1 9 7 0 10 5 7 11 -9 14 -12
108 -3 103 4 -2 9 0 13 6 3 5 1 10 -5 10 -6 0 -8 5 -5 10 4 6 11 8 16 5 5 -3
6 0 3 8 -8 22 -11 117 -3 117 3 0 5 11 4 25 -2 14 0 25 5 25 4 0 7 18 6 39 -2
29 1 38 11 34 7 -3 13 0 13 6 0 6 -4 11 -10 11 -5 0 -10 5 -10 11 0 5 4 7 10
4 6 -4 9 9 8 33 0 21 3 45 7 53 7 12 6 12 -7 1 -15 -12 -16 -11 -5 17 6 16 15
28 19 25 15 -9 8 3 -9 17 -14 12 -16 12 -8 0 5 -9 4 -12 -3 -7 -7 4 -7 14 3
33 9 17 11 32 5 43 -5 10 -7 19 -5 22 3 2 7 71 10 154 4 82 11 217 16 299 5
83 10 228 11 323 2 110 7 171 13 168 6 -2 10 22 10 60 1 35 -3 64 -8 64 -5 0
-6 -8 -2 -17 5 -14 4 -15 -6 -6 -10 10 -9 16 2 29 15 18 21 114 7 114 -4 0 -8
5 -8 11 0 5 5 7 11 3 7 -4 9 1 7 12 -2 11 -10 18 -17 16 -7 -1 -10 2 -6 8 3 6
11 8 16 5 5 -4 9 7 9 24 0 16 -6 32 -12 34 -10 4 -10 6 0 6 7 1 12 15 12 37 0
25 -4 33 -12 28 -10 -6 -10 -4 0 7 7 8 12 42 12 89 0 47 -5 81 -12 89 -11 11
-10 12 1 6 11 -6 12 0 8 31 -3 22 -8 113 -11 204 -19 573 -167 1750 -219 1750
-5 0 -3 8 4 17 10 11 10 14 2 9 -13 -7 -18 15 -13 58 1 13 -2 16 -12 10 -9 -5
-8 -2 2 11 12 15 12 17 1 10 -11 -6 -13 -4 -8 8 3 10 3 17 -2 17 -4 0 -8 7 -8
15 0 8 4 15 9 15 5 0 4 9 -2 19 -7 14 -6 21 3 24 9 4 9 6 0 6 -7 1 -10 7 -7
15 3 8 1 17 -5 21 -6 3 -11 12 -11 18 0 7 4 6 10 -3 7 -11 10 -12 10 -2 0 8
-8 16 -18 19 -14 3 -18 13 -17 39 0 20 -3 38 -7 40 -4 3 -4 12 -1 21 4 11 3
14 -5 9 -7 -4 -12 -2 -12 3 0 6 5 11 12 11 6 0 3 7 -8 15 -10 8 -14 15 -8 15
12 0 6 60 -6 60 -4 0 -7 14 -6 31 1 18 -4 33 -12 38 -10 6 -11 10 -3 15 8 5 6
12 -5 24 -9 9 -12 18 -7 19 12 4 4 53 -8 53 -5 0 -9 7 -9 16 0 9 5 13 13 9 6
-4 5 -1 -4 7 -9 7 -14 19 -11 27 2 7 -2 17 -9 22 -11 7 -11 9 -1 9 10 0 9 4
-3 16 -13 14 -14 19 -3 25 8 6 9 9 2 9 -7 0 -15 7 -18 16 -4 10 -2 13 7 8 9
-5 9 -4 0 7 -7 7 -13 26 -13 42 0 20 -4 26 -12 21 -8 -5 -7 0 2 11 12 15 12
17 1 10 -11 -6 -13 -4 -8 8 4 10 1 17 -6 17 -8 0 -6 4 3 10 8 5 10 10 4 10 -7
0 -15 7 -18 16 -4 10 -2 13 6 8 7 -5 8 -3 2 7 -9 14 -14 34 -16 57 -1 6 -6 12
-11 12 -5 0 -3 8 4 17 10 11 10 14 2 9 -13 -7 -18 15 -13 58 1 11 -3 15 -9 12
-6 -4 -11 -2 -11 3 0 6 6 11 13 11 6 1 1 7 -12 14 -18 10 -20 15 -10 19 10 4
10 6 2 6 -7 1 -13 6 -13 12 0 5 6 7 13 4 6 -4 5 -1 -3 7 -8 7 -14 24 -12 37 2
13 -2 28 -10 32 -10 7 -10 9 0 9 10 0 10 3 0 14 -7 8 -16 12 -20 9 -5 -2 -8 0
-8 6 0 5 6 12 13 14 9 4 9 6 0 6 -8 1 -13 16 -13 42 0 24 -4 38 -10 34 -5 -3
-10 -1 -10 4 0 6 6 11 13 11 6 1 1 7 -13 15 -15 9 -19 14 -10 15 12 0 12 2 2
9 -7 4 -14 17 -15 29 0 12 -8 24 -15 27 -11 4 -12 8 -2 20 10 12 10 15 -1 15
-12 0 -12 2 0 9 9 6 10 11 3 15 -6 4 -8 14 -5 23 5 12 3 14 -8 8 -12 -8 -12
-6 0 8 11 15 11 17 -2 17 -10 0 -13 6 -10 20 3 12 0 20 -7 20 -7 0 -10 8 -7
20 4 15 0 20 -16 20 -16 0 -18 3 -9 9 20 12 19 21 -1 33 -14 7 -16 13 -6 24 9
11 9 14 -1 14 -7 0 -10 7 -6 16 3 8 2 12 -4 9 -5 -3 -12 7 -16 22 -3 15 -8 35
-12 43 -3 8 -6 20 -7 25 0 6 -7 21 -15 35 -13 24 -12 24 6 10 18 -14 18 -14 1
6 -9 11 -14 24 -10 27 3 4 -2 7 -12 7 -14 0 -15 3 -5 15 9 10 9 15 1 15 -6 0
-11 16 -11 36 0 25 -3 33 -12 28 -8 -5 -7 0 2 11 9 11 10 16 3 11 -8 -4 -13
-1 -13 8 0 9 -5 16 -11 16 -8 0 -7 6 2 17 10 11 10 14 2 9 -8 -4 -13 -1 -14 8
-3 37 -19 76 -30 76 -5 0 -9 16 -9 36 0 25 -3 33 -12 28 -8 -5 -7 0 2 11 8 10
10 16 5 13 -6 -4 -17 2 -24 14 -7 11 -8 17 -3 14 12 -7 10 20 -3 31 -4 4 -5 2
-1 -4 4 -7 2 -13 -5 -13 -7 0 -9 10 -7 24 4 17 1 23 -9 19 -9 -4 -11 0 -7 11
3 9 1 16 -5 16 -9 0 -9 5 0 21 8 15 8 19 0 15 -6 -4 -11 0 -11 8 0 9 -6 16
-12 16 -9 0 -8 4 2 10 10 6 11 10 3 10 -7 0 -13 7 -13 15 0 8 -6 15 -12 15 -9
0 -8 4 2 10 12 8 12 10 1 10 -8 0 -11 7 -8 20 3 10 2 19 -2 18 -3 0 -13 0 -21
1 -12 1 -12 4 3 15 16 12 16 14 2 20 -11 4 -14 2 -9 -6 4 -7 3 -8 -4 -4 -9 5
-9 13 -1 28 8 15 8 19 0 14 -7 -5 -11 1 -11 14 0 14 -4 19 -12 14 -10 -6 -10
-5 0 8 10 13 9 18 -5 29 -17 13 -17 13 -3 -6 14 -19 14 -19 -2 -6 -20 15 -25
47 -6 35 7 -4 8 -3 4 4 -4 7 -15 12 -24 12 -15 0 -15 2 -2 10 12 8 12 10 1 10
-9 0 -12 8 -9 25 3 13 2 24 -1 23 -3 0 -13 0 -21 1 -12 1 -12 3 -2 10 11 6 10
11 -3 25 -11 10 -12 16 -4 16 7 0 3 8 -9 18 -17 15 -19 21 -9 32 9 10 9 11 0
6 -8 -4 -13 -1 -13 8 0 9 -6 16 -12 16 -9 0 -8 4 2 10 9 6 11 10 3 10 -7 0
-10 7 -7 15 4 8 1 15 -6 15 -6 0 -8 5 -4 13 6 9 4 9 -8 -1 -14 -11 -16 -10
-11 7 3 14 1 21 -8 21 -11 0 -11 2 1 10 10 6 11 10 3 10 -7 0 -13 7 -13 15 0
9 -9 25 -20 37 -15 16 -17 25 -9 41 7 11 7 17 1 13 -12 -7 -34 17 -30 35 2 8
-3 13 -11 11 -12 -3 -12 0 -2 12 10 12 8 16 -9 21 -16 5 -21 13 -18 30 4 16 0
25 -12 28 -13 3 -16 12 -13 31 3 15 1 26 -6 26 -6 0 -11 5 -11 11 0 5 5 7 12
3 7 -4 8 -3 4 4 -4 7 -14 12 -22 12 -8 0 -14 5 -14 11 0 5 5 7 10 4 19 -12 10
11 -10 25 -14 10 -16 17 -9 26 7 8 6 15 -2 20 -8 4 -9 3 -5 -4 4 -7 3 -12 -2
-12 -14 0 -22 40 -9 40 7 0 4 5 -6 11 -10 6 -14 15 -10 22 4 7 -2 5 -12 -3
-12 -10 -16 -10 -11 -2 4 7 2 20 -6 29 -9 12 -9 15 0 9 6 -4 12 -2 12 3 0 6
-5 11 -11 11 -5 0 -7 4 -4 10 3 6 -1 7 -10 4 -11 -5 -14 -2 -9 10 3 9 1 16 -6
16 -6 0 -8 5 -5 10 3 6 3 10 -2 10 -4 0 -13 11 -20 25 -6 14 -7 23 -3 20 4 -3
6 5 2 17 -3 12 -7 17 -10 10 -2 -7 -8 -9 -13 -6 -6 3 -5 12 3 22 10 12 10 14
1 8 -8 -4 -13 -1 -13 8 0 9 -4 16 -8 16 -5 0 -14 12 -20 26 -7 14 -8 23 -2 19
15 -9 12 4 -4 20 -7 8 -17 11 -21 7 -4 -4 -5 -2 -4 3 2 6 -2 20 -9 33 -7 12
-10 27 -7 32 3 6 -1 7 -9 4 -12 -4 -16 0 -16 16 0 13 -4 19 -11 14 -8 -5 -8
-1 0 14 9 17 8 22 -10 27 -17 6 -19 9 -8 16 11 7 11 9 -2 9 -19 0 -35 30 -16
31 7 0 2 4 -10 9 -22 9 -24 24 -9 48 5 9 3 13 -5 11 -29 -3 -37 2 -32 20 3 12
-4 25 -19 36 -15 11 -17 15 -5 12 9 -4 17 -2 17 3 0 6 -7 10 -15 10 -8 0 -15
5 -15 10 0 6 -8 10 -17 11 -15 0 -15 2 2 9 11 5 14 9 7 9 -7 1 -10 5 -7 11 3
5 0 7 -7 5 -9 -4 -14 3 -15 17 -1 13 -7 24 -13 26 -8 3 -8 8 0 17 9 11 6 12
-12 8 -17 -3 -19 -2 -9 5 11 8 9 11 -8 17 -11 3 -21 11 -21 16 0 6 5 7 10 4 6
-3 10 -1 10 4 0 6 -5 11 -11 11 -5 0 -7 5 -4 10 3 6 -4 10 -16 10 -22 0 -22 0
-3 16 10 8 13 13 7 9 -7 -3 -13 -1 -13 5 0 6 -4 9 -9 6 -5 -3 -12 1 -15 10 -3
8 -2 12 3 9 5 -3 13 0 17 6 4 7 3 9 -3 6 -6 -4 -19 0 -29 8 -19 15 -18 15 1 9
15 -4 13 -1 -5 10 -16 10 -19 16 -10 16 12 0 11 3 -3 11 -9 6 -15 14 -12 20 4
5 -2 6 -12 2 -16 -6 -17 -5 -3 12 12 15 12 17 1 10 -11 -6 -13 -4 -8 9 5 13 3
17 -7 13 -20 -8 -28 4 -13 21 8 11 8 14 0 9 -7 -4 -16 4 -24 22 -7 16 -17 27
-21 25 -4 -3 -8 2 -8 11 0 20 -25 47 -35 37 -4 -4 -2 3 4 16 11 21 10 24 -8
29 -24 6 -26 14 -8 32 10 11 8 12 -9 7 -15 -5 -24 -2 -28 9 -4 11 -2 14 7 10
6 -4 4 0 -5 8 -10 8 -18 18 -18 22 0 4 -8 15 -17 24 -10 9 -19 23 -21 31 -2 8
-8 17 -13 18 -5 2 -9 10 -9 18 0 10 -5 12 -12 8 -9 -5 -9 -2 1 9 11 14 11 17
0 18 -8 1 -18 1 -22 0 -5 -1 -6 3 -2 9 3 6 11 7 17 4 7 -4 8 -2 4 4 -4 7 -14
12 -23 12 -8 0 -13 6 -10 13 3 7 -1 21 -9 31 -7 11 -10 24 -7 30 4 6 -2 4 -13
-4 -10 -8 -16 -11 -12 -6 9 11 -14 35 -27 28 -5 -3 -4 2 4 11 8 10 11 20 7 24
-3 3 -6 1 -6 -6 0 -9 -4 -9 -14 1 -8 7 -12 21 -11 30 3 12 -1 15 -13 11 -15
-6 -16 -5 -2 12 8 10 10 16 4 12 -16 -9 -38 19 -30 39 6 15 4 15 -11 3 -15
-12 -16 -12 -10 4 4 11 2 17 -8 17 -8 0 -15 5 -15 11 0 5 5 7 10 4 6 -3 10 -1
10 4 0 6 -7 11 -16 11 -8 0 -12 5 -9 10 3 6 -3 10 -14 10 -12 0 -21 5 -21 11
0 5 6 7 13 4 6 -4 2 2 -10 13 -24 21 -31 38 -11 26 7 -4 8 -3 4 4 -4 6 -14 8
-23 5 -10 -4 -14 -2 -9 5 3 6 -2 15 -11 21 -14 8 -15 10 -3 11 13 0 13 2 0 9
-8 6 -17 8 -21 6 -3 -3 -5 7 -3 20 2 19 -2 25 -18 25 -17 0 -18 3 -9 14 10 12
7 18 -18 30 -30 16 -47 47 -36 65 5 8 -11 25 -25 26 -3 0 -14 6 -25 14 -15 9
-15 11 -3 7 10 -3 20 -1 23 5 4 5 3 8 -2 7 -4 -1 -18 2 -31 6 -20 7 -21 10
-10 24 11 13 11 15 -4 10 -10 -4 -19 -1 -22 8 -9 24 -7 36 6 28 7 -4 8 -3 4 5
-6 9 -11 9 -22 0 -11 -9 -14 -8 -14 5 0 18 -24 48 -32 41 -3 -3 -5 2 -5 10 0
8 5 15 11 15 5 0 1 6 -10 14 -14 11 -22 11 -32 3 -10 -8 -12 -7 -10 4 2 8 8
17 13 21 6 4 -1 8 -15 9 -14 0 -19 3 -12 6 6 2 12 9 12 14 0 4 -6 6 -14 3 -8
-3 -17 0 -22 7 -4 8 -3 10 4 5 7 -4 12 -2 12 3 0 6 -9 11 -20 11 -11 0 -20 5
-20 11 0 5 5 7 12 3 7 -4 8 -3 4 4 -4 6 -14 8 -23 5 -10 -4 -14 -2 -10 4 4 6
0 18 -8 26 -17 18 -20 31 -5 22 16 -10 11 1 -7 16 -11 10 -14 10 -9 2 4 -7 2
-13 -3 -13 -6 0 -11 7 -11 16 0 9 -5 12 -12 8 -9 -5 -8 -2 1 9 12 15 12 17 -4
11 -13 -5 -16 -4 -11 4 4 7 2 12 -5 12 -9 0 -9 3 0 14 10 12 8 13 -8 9 -13 -3
-21 -1 -21 6 0 7 -5 9 -12 5 -9 -5 -9 -2 1 9 12 15 11 17 -10 18 -22 0 -23 1
-4 9 19 8 19 9 -3 9 -13 1 -20 5 -17 11 3 6 1 10 -5 10 -6 0 -8 5 -5 10 3 6 0
10 -8 10 -17 0 -30 26 -21 43 3 7 -2 3 -11 -8 -17 -20 -17 -20 -10 4 6 20 4
23 -9 18 -14 -6 -16 -3 -11 13 4 11 3 20 -2 19 -4 -1 -15 -1 -23 0 -13 1 -13
2 0 11 13 9 13 10 0 10 -13 0 -13 1 0 10 8 5 10 10 4 10 -5 0 -15 -5 -21 -11
-7 -7 -10 -4 -9 13 1 17 -5 24 -21 26 -22 3 -32 26 -15 35 4 2 2 3 -5 1 -18
-4 -46 33 -39 52 6 15 4 15 -11 3 -15 -12 -16 -12 -10 3 3 10 1 20 -5 24 -7 4
-8 3 -4 -4 4 -7 2 -12 -3 -12 -6 0 -11 7 -11 16 0 9 -5 12 -12 8 -7 -5 -9 -2
-5 8 8 22 -3 30 -20 16 -11 -9 -12 -7 -7 7 6 14 4 16 -7 10 -11 -7 -12 -6 -2
7 16 19 5 32 -14 16 -11 -8 -12 -7 -8 5 4 8 1 18 -4 22 -6 3 -9 10 -6 15 3 5
-4 15 -15 23 -11 7 -17 17 -12 22 4 5 1 5 -7 0 -12 -7 -11 -10 4 -22 11 -7 14
-13 9 -13 -16 0 -34 22 -34 42 0 10 -5 18 -11 18 -5 0 -7 -4 -4 -10 3 -6 -1
-7 -10 -4 -13 5 -13 9 -3 22 10 12 10 14 1 8 -8 -4 -13 -1 -13 8 0 9 -5 16
-11 16 -5 0 -7 4 -4 10 3 6 -1 7 -9 4 -19 -7 -21 7 -5 23 9 9 7 10 -10 6 -15
-4 -21 -1 -21 12 0 12 -5 15 -17 11 -17 -6 -17 -5 0 8 16 12 16 14 2 20 -9 3
-13 2 -10 -4 3 -6 2 -10 -4 -10 -5 0 -13 9 -16 20 -4 11 -11 18 -16 15 -5 -4
-9 0 -9 8 0 18 -35 59 -44 50 -3 -3 -6 -1 -6 6 0 7 -4 9 -10 6 -5 -3 -10 -2
-10 4 0 5 6 12 13 15 6 3 2 3 -10 0 -14 -3 -23 -1 -23 6 0 6 -5 8 -12 4 -10
-6 -10 -4 0 8 11 13 8 19 -15 37 -15 12 -21 20 -13 18 8 -2 12 -2 7 0 -4 3 -4
9 -1 15 4 6 -2 5 -15 -1 -18 -10 -20 -9 -14 6 5 12 2 15 -10 10 -9 -3 -21 1
-29 11 -7 9 -8 13 -2 9 7 -4 14 0 17 8 4 10 1 12 -10 8 -13 -5 -15 -2 -10 12
6 15 5 16 -8 5 -13 -11 -14 -10 -10 3 4 8 1 18 -6 23 -7 4 -10 3 -5 -4 3 -6 2
-14 -4 -17 -6 -4 -9 -3 -8 2 5 19 -15 53 -31 53 -10 0 -25 8 -32 18 -12 15
-12 16 2 5 13 -10 16 -10 16 2 0 7 -3 14 -6 13 -28 -3 -41 5 -41 25 0 18 -2
19 -10 7 -8 -12 -10 -11 -10 6 0 26 -10 36 -24 24 -8 -6 -16 -2 -26 13 -12 20
-12 21 3 9 10 -9 17 -10 22 -2 4 6 1 9 -7 8 -7 -2 -12 3 -10 10 2 10 -2 10
-18 2 -11 -6 -20 -7 -19 -3 4 25 -2 35 -18 29 -10 -4 -14 -4 -10 0 4 4 -1 13
-11 21 -13 10 -13 12 -2 10 8 -2 12 -2 7 0 -4 3 -5 9 -2 14 4 5 -2 6 -11 2
-14 -5 -16 -3 -11 12 6 15 5 16 -8 5 -11 -9 -15 -9 -15 -1 0 7 -5 9 -12 5 -9
-5 -9 -2 1 9 12 15 11 17 -8 17 -11 0 -21 5 -21 11 0 5 5 7 10 4 6 -3 10 -1
10 4 0 14 -13 14 -28 -1 -8 -8 -10 -4 -7 18 2 16 2 23 -1 17 -9 -21 -27 -14
-21 8 4 16 3 18 -9 8 -11 -9 -14 -7 -14 10 0 14 -6 21 -20 21 -11 0 -20 5 -20
11 0 5 -5 7 -12 3 -7 -4 -8 -3 -4 5 6 8 12 9 20 2 9 -8 13 -7 13 4 0 8 -4 12
-8 9 -4 -2 -10 0 -14 5 -3 6 -12 8 -20 4 -10 -3 -15 1 -15 13 0 16 -2 17 -10
4 -9 -13 -10 -13 -10 1 0 22 -42 59 -68 59 -12 0 -22 4 -22 10 0 5 8 7 18 4
16 -5 16 -5 -1 6 -9 6 -15 15 -13 19 3 4 -1 8 -8 8 -8 0 -12 -7 -10 -16 3 -9
-1 -6 -7 7 -7 12 -16 22 -21 22 -4 0 -8 9 -8 20 0 13 -7 20 -20 20 -12 0 -20
7 -20 16 0 11 -6 14 -17 10 -17 -6 -17 -5 0 8 16 12 16 14 2 20 -9 3 -13 2
-10 -4 13 -22 -9 -8 -38 23 -16 17 -24 23 -16 12 13 -18 12 -19 -2 -8 -9 7
-18 10 -22 7 -3 -3 -3 3 0 15 3 13 1 21 -6 21 -7 0 -9 5 -5 12 4 7 3 8 -5 4
-7 -5 -9 -13 -4 -20 4 -7 1 -4 -8 6 -9 9 -20 14 -25 10 -5 -4 -2 2 6 12 14 18
13 19 -7 14 -21 -5 -22 -4 -11 15 10 19 9 20 -4 9 -13 -10 -18 -10 -24 -1 -4
8 -3 9 4 5 7 -4 12 -2 12 3 0 6 -7 11 -15 11 -8 0 -14 6 -13 13 2 7 -5 11 -16
9 -10 -2 -16 1 -13 5 3 5 -6 9 -21 9 -21 -1 -26 3 -24 18 2 11 -1 15 -7 11 -6
-3 -11 -2 -11 4 0 5 6 12 13 15 6 3 1 3 -12 0 -16 -4 -21 -3 -17 5 4 6 2 12
-3 12 -6 1 -15 2 -20 3 -5 0 -13 5 -18 10 -4 5 -3 6 3 3 7 -4 15 1 18 10 4 10
4 14 0 10 -4 -4 -13 -2 -20 3 -6 6 -16 10 -20 9 -5 -1 -20 3 -34 9 -14 6 -18
11 -9 11 8 1 21 -5 29 -11 12 -11 12 -10 1 5 -7 9 -21 17 -30 17 -17 0 -61 39
-61 54 0 4 12 -6 26 -21 15 -15 21 -21 15 -12 -6 9 -7 20 -3 24 4 5 2 5 -4 2
-7 -4 -15 0 -18 9 -5 13 -9 14 -22 3 -12 -10 -15 -10 -12 1 2 7 -3 15 -11 18
-10 3 -11 0 -5 -9 7 -12 5 -12 -9 0 -9 7 -17 22 -17 32 0 12 -7 19 -20 19 -11
0 -20 5 -20 11 0 5 4 7 10 4 6 -3 7 1 4 10 -6 14 -8 14 -21 -2 -8 -10 -12 -12
-8 -5 4 7 0 12 -9 12 -9 0 -16 7 -16 15 0 8 -3 14 -7 14 -26 -4 -35 3 -30 22
3 12 3 18 0 15 -4 -3 -13 0 -22 7 -14 11 -14 10 -2 -6 12 -15 12 -17 -3 -11
-9 3 -16 15 -16 25 0 10 -5 19 -11 19 -5 0 -7 -6 -4 -12 4 -7 0 -4 -9 6 -8 10
-13 23 -10 27 3 5 0 9 -6 9 -7 0 -10 -7 -7 -14 4 -10 1 -13 -8 -9 -8 3 -13 9
-10 13 3 5 -4 11 -15 15 -11 3 -20 11 -20 17 0 6 7 5 18 -3 15 -13 16 -12 3 4
-8 10 -23 16 -35 15 -16 -2 -21 2 -20 20 0 15 -3 19 -9 13 -13 -13 -50 27 -40
42 3 6 1 7 -6 3 -6 -4 -9 -11 -6 -16 3 -5 1 -11 -4 -14 -5 -4 -8 5 -7 19 2 13
-1 22 -5 19 -5 -3 -9 0 -9 5 0 6 -3 10 -7 10 -18 -3 -36 1 -30 7 10 11 -50 54
-74 54 -20 0 -21 2 -9 11 12 8 9 9 -12 5 -17 -4 -28 -2 -28 4 0 6 4 9 9 5 5
-3 13 -1 16 5 4 6 3 10 -2 9 -4 -1 -17 -1 -28 1 l-20 1 20 10 c17 8 16 9 -8 5
-21 -2 -27 0 -23 11 3 8 2 11 -4 8 -11 -7 -51 35 -44 47 3 4 0 8 -5 8 -15 0
-14 -13 2 -29 10 -11 8 -11 -11 -2 -12 7 -20 16 -17 22 4 5 -1 9 -10 9 -8 0
-18 7 -21 15 -4 8 -12 15 -20 15 -8 0 -14 5 -14 10 0 6 -7 10 -15 10 -8 0 -15
5 -15 10 0 6 -7 10 -16 10 -13 0 -14 3 -5 14 9 11 6 12 -15 8 -19 -3 -25 -1
-20 7 4 6 2 11 -4 11 -6 0 -8 5 -4 11 5 8 1 8 -14 0 -17 -9 -22 -8 -27 9 -3
11 -9 19 -13 19 -26 -4 -34 2 -23 15 9 11 9 16 0 22 -8 4 -9 3 -5 -4 5 -8 0
-12 -13 -12 -12 0 -26 9 -33 19 -6 10 -18 17 -25 14 -9 -4 -11 0 -7 11 4 11 1
16 -10 16 -9 0 -16 -6 -16 -12 0 -9 -4 -8 -10 2 -13 20 -12 39 1 20 9 -13 10
-13 6 0 -2 8 -11 14 -21 12 -9 -2 -16 2 -16 8 0 5 -5 10 -11 10 -5 0 -7 -4 -4
-10 10 -16 -1 -11 -16 7 -8 9 -9 14 -3 10 6 -3 11 -1 11 6 0 8 -13 12 -32 12
-19 -1 -32 3 -32 11 0 10 6 10 21 3 20 -9 20 -9 3 4 -10 8 -28 13 -40 10 -16
-3 -18 -2 -9 5 11 7 10 11 -4 16 -10 4 -21 2 -24 -4 -5 -8 -9 -6 -13 5 -4 9
-3 13 3 10 6 -3 10 -1 10 4 0 6 -12 11 -26 11 -14 0 -23 4 -19 10 6 9 -8 14
-27 11 -5 0 -8 4 -8 10 0 5 -4 7 -10 4 -5 -3 -11 -1 -11 4 -1 6 -2 15 -3 20 0
5 -5 13 -10 18 -5 5 -6 3 -2 -4 4 -7 2 -13 -3 -13 -6 0 -11 5 -11 11 0 8 -5 8
-15 -1 -15 -13 -21 -1 -7 15 4 6 6 9 3 8 -2 -1 -22 12 -45 30 -22 17 -37 27
-33 20 5 -8 1 -11 -13 -10 -22 1 -27 13 -7 21 6 2 1 4 -13 3 -14 -1 -29 -6
-33 -12 -5 -5 -5 0 -2 13 5 16 2 22 -10 22 -9 0 -13 5 -10 10 9 14 -9 12 -24
-2 -10 -11 -12 -10 -9 2 2 8 -2 14 -9 13 -8 -2 -10 4 -6 15 6 14 4 15 -9 5
-15 -13 -28 -8 -28 11 0 6 5 4 11 -4 9 -13 10 -13 6 0 -2 8 -10 14 -16 12 -7
-1 -19 5 -28 13 -8 9 -21 14 -27 12 -7 -3 -23 4 -37 15 l-24 20 29 -17 c16 -9
25 -12 22 -6 -4 6 -21 18 -38 27 -22 12 -28 12 -22 2 6 -10 5 -11 -8 -1 -8 7
-17 11 -20 8 -3 -3 -11 3 -19 12 -13 16 -12 17 4 4 15 -12 17 -12 11 3 -7 19
-16 20 -32 4 -9 -9 -12 -8 -13 7 -1 11 -1 24 0 28 1 5 -3 6 -9 2 -6 -3 -8 -11
-5 -16 3 -5 -1 -6 -9 -3 -9 3 -16 12 -16 20 0 8 -7 14 -16 14 -9 0 -12 5 -8
13 6 10 4 10 -7 0 -14 -14 -30 -17 -28 -5 5 28 -2 35 -17 16 -8 -10 -13 -13
-9 -6 3 6 2 12 -4 12 -5 0 -13 9 -16 21 -4 11 -9 18 -12 15 -4 -3 -13 0 -21 7
-11 8 -14 8 -9 0 4 -6 3 -14 -3 -18 -6 -4 -10 5 -10 21 0 27 -1 27 -16 8 -8
-10 -13 -14 -10 -9 2 6 1 17 -5 25 -7 13 -9 13 -9 1 0 -11 -4 -10 -16 5 -8 10
-13 12 -9 4 4 -10 2 -10 -8 2 -11 14 -16 15 -27 5 -10 -9 -11 -9 -6 0 9 16
-33 53 -61 53 -16 0 -21 4 -17 15 4 10 2 13 -8 10 -8 -3 -20 1 -27 9 -7 8 -21
12 -33 8 -14 -3 -19 -1 -14 6 4 7 1 12 -9 12 -10 0 -13 5 -9 12 4 6 3 8 -4 4
-6 -3 -13 -2 -17 3 -3 6 -12 8 -20 4 -8 -3 -15 0 -15 6 0 6 -7 11 -16 11 -9 0
-12 -5 -8 -12 4 -7 3 -8 -5 -4 -6 4 -9 12 -6 17 4 5 1 9 -5 9 -6 0 -8 5 -4 13
5 7 0 6 -11 -3 -10 -8 -16 -10 -13 -5 4 6 -2 16 -13 23 -11 7 -19 8 -19 2 0
-5 5 -10 12 -10 6 0 9 -2 6 -5 -10 -11 -37 7 -31 21 3 8 2 14 -3 13 -31 -5
-53 2 -48 16 4 10 2 13 -8 10 -8 -3 -20 1 -27 9 -7 8 -21 12 -33 8 -14 -3 -19
-1 -14 6 4 7 1 12 -9 12 -10 0 -14 5 -9 13 6 10 4 10 -7 0 -16 -16 -29 -17
-29 -2 0 5 4 8 8 5 5 -3 9 1 9 9 0 11 -4 12 -13 4 -10 -8 -18 -7 -29 5 -21 21
-26 20 -19 -1 4 -14 2 -13 -7 2 -17 27 -29 34 -47 27 -10 -3 -13 -1 -8 6 4 7
1 12 -9 12 -10 0 -13 5 -9 12 4 6 3 8 -4 4 -6 -3 -14 -2 -17 4 -5 8 -11 7 -21
-1 -11 -9 -14 -8 -14 6 0 11 -5 15 -16 11 -8 -3 -13 -2 -10 3 3 5 -2 15 -11
22 -9 8 -14 9 -10 3 4 -7 0 -15 -9 -18 -8 -3 -12 -2 -9 4 3 6 1 10 -5 10 -6 0
-9 4 -6 8 2 4 -7 9 -22 10 -14 1 -31 7 -37 14 -7 8 -6 9 4 3 9 -5 12 -4 8 3
-4 5 -17 8 -29 4 -12 -3 -19 -1 -15 4 5 8 -14 14 -60 17 -9 0 -10 4 -2 13 7 8
6 14 -2 20 -8 4 -9 3 -5 -4 5 -8 -1 -11 -18 -10 -17 2 -22 6 -16 13 7 8 3 11
-13 10 -30 -3 -42 5 -26 17 9 6 5 7 -13 2 -19 -4 -29 -1 -37 13 -10 17 -10 17
-11 -2 l-1 -20 -9 20 c-6 13 -9 15 -9 5 -1 -13 -3 -13 -10 -1 -5 8 -7 21 -4
30 4 13 2 13 -7 -1 -12 -20 -44 -13 -36 8 3 8 0 11 -10 7 -8 -3 -24 3 -36 13
-12 11 -18 13 -14 7 4 -7 3 -13 -3 -13 -5 0 -15 8 -20 18 -8 12 -10 13 -11 3
0 -11 -4 -10 -16 5 -8 10 -13 12 -9 4 4 -10 2 -9 -8 2 -8 10 -17 15 -20 11 -4
-3 -13 0 -22 7 -8 7 -15 9 -15 6 0 -4 -7 0 -16 9 -14 13 -19 14 -25 3 -6 -9
-9 -5 -9 12 0 20 -2 22 -10 10 -9 -13 -12 -12 -25 4 -10 13 -15 15 -15 6 0 -9
-5 -8 -16 6 -8 10 -13 13 -9 7 4 -9 1 -11 -9 -7 -9 3 -16 12 -16 20 0 7 -6 11
-14 8 -8 -3 -23 -1 -34 5 -13 7 -23 7 -32 -2 -10 -9 -11 -9 -6 1 4 6 2 12 -4
12 -6 0 -9 4 -6 9 4 5 -5 8 -19 6 -16 -1 -25 3 -25 12 0 8 -4 12 -9 8 -6 -3
-14 3 -20 12 -6 10 -11 12 -11 6 0 -8 -9 -11 -22 -9 -13 2 -22 8 -21 14 1 5
-7 8 -17 5 -11 -3 -20 -1 -20 5 0 5 -7 13 -16 16 -8 3 -12 2 -9 -4 3 -6 1 -10
-4 -10 -6 0 -11 7 -11 16 0 9 -5 12 -12 8 -6 -4 -18 2 -26 12 -13 16 -14 17
-9 2 4 -10 2 -18 -3 -18 -6 0 -10 5 -10 11 0 6 -7 9 -14 6 -10 -4 -13 -1 -10
7 4 10 -2 12 -19 9 -14 -3 -28 1 -32 8 -5 8 -4 10 3 5 8 -5 10 -2 6 9 -6 14
-8 14 -20 -2 -12 -17 -13 -16 -14 5 0 14 -4 21 -11 16 -6 -3 -22 0 -36 7 -20
11 -26 11 -33 -1 -8 -13 -10 -12 -10 2 0 9 -5 20 -12 24 -7 4 -8 3 -4 -4 4 -7
2 -12 -3 -12 -6 0 -11 5 -11 11 0 8 -6 7 -17 -2 -10 -8 -14 -9 -10 -2 4 6 3
14 -3 18 -5 3 -10 1 -10 -4 0 -6 -5 -11 -11 -11 -5 0 -8 3 -5 8 2 4 -7 13 -21
19 -21 10 -24 10 -19 -4 5 -13 4 -14 -9 -3 -8 7 -12 17 -8 24 4 6 -2 4 -12 -4
-11 -9 -16 -10 -11 -2 7 11 -16 17 -51 13 -7 -1 -13 6 -13 16 0 10 -4 14 -8 8
-9 -12 -36 -19 -28 -7 3 5 -6 14 -19 20 -15 7 -25 8 -25 2 0 -6 -5 -10 -11
-10 -5 0 -8 3 -5 8 2 4 -7 13 -21 19 -21 10 -24 10 -19 -4 5 -13 4 -14 -8 -3
-9 6 -14 17 -13 22 1 6 -6 12 -16 13 -9 2 -15 -1 -11 -6 9 -15 -8 -10 -20 6
-6 8 -26 16 -43 17 -18 1 -33 7 -33 13 0 5 -4 4 -9 -4 -6 -9 -11 -10 -15 -2
-5 8 -13 8 -29 -1 -19 -10 -21 -9 -9 4 10 13 10 18 1 24 -8 4 -9 3 -5 -4 4 -7
1 -12 -9 -12 -8 0 -18 7 -21 15 -6 14 -8 13 -21 -2 -8 -10 -12 -12 -8 -5 3 6
1 12 -5 12 -6 0 -8 5 -4 12 5 8 2 9 -11 5 -9 -4 -23 -3 -29 1 -16 13 -57 22
-50 11 3 -5 0 -9 -5 -9 -6 0 -11 4 -11 10 0 5 -3 9 -7 9 -20 -3 -34 2 -29 10
3 5 -3 11 -14 14 -11 3 -18 1 -14 -4 3 -5 0 -9 -5 -9 -6 0 -11 5 -11 11 0 5
-4 7 -10 4 -5 -3 -10 -1 -10 6 0 10 -3 10 -11 2 -13 -13 -42 -6 -33 8 3 5 0 9
-5 9 -6 0 -11 -5 -11 -11 0 -8 -4 -9 -13 0 -8 6 -17 8 -20 4 -4 -3 -7 -1 -7 5
0 10 -30 9 -48 -2 -5 -3 -9 1 -10 9 -1 8 -3 22 -4 30 -1 8 -5 12 -10 9 -5 -3
-5 -10 -2 -16 4 -7 0 -7 -12 0 -11 5 -27 8 -37 7 -9 -2 -15 0 -12 5 3 4 -2 10
-10 14 -8 3 -15 1 -15 -4 0 -6 -5 -10 -11 -10 -5 0 -7 5 -3 12 5 8 2 9 -9 5
-10 -3 -17 -2 -17 4 0 6 -6 6 -19 -1 -15 -7 -25 -5 -42 9 -17 14 -29 17 -41
10 -11 -6 -18 -6 -18 -1 0 6 -9 12 -20 15 -11 3 -18 1 -14 -4 3 -5 -2 -6 -10
-3 -9 3 -16 11 -16 18 0 6 -5 4 -10 -4 -8 -12 -10 -12 -10 5 0 11 -4 16 -8 10
-9 -12 -36 -19 -28 -7 3 5 -6 14 -19 20 -15 7 -25 8 -25 2 0 -6 -5 -10 -11
-10 -5 0 -7 5 -3 12 5 8 2 9 -9 5 -10 -3 -17 -2 -17 4 0 6 -8 9 -17 8 -33 -3
-44 1 -37 12 5 8 1 8 -13 0 -14 -7 -24 -7 -33 2 -10 9 -11 9 -5 -2 5 -9 3 -12
-6 -9 -8 3 -13 10 -12 16 1 5 -7 8 -17 5 -11 -3 -20 -1 -20 5 0 5 -14 8 -30 7
-17 -1 -33 2 -37 8 -4 6 -1 7 7 2 9 -5 11 -4 6 3 -5 8 -13 9 -25 2 -12 -6 -22
-5 -29 2 -9 9 -12 9 -12 0 0 -10 -5 -10 -21 -1 -12 6 -19 7 -16 2 4 -5 0 -10
-8 -10 -8 0 -12 5 -8 10 3 5 -3 6 -14 3 -12 -4 -27 1 -41 14 -20 19 -22 19
-23 3 0 -16 -1 -16 -9 2 -5 11 -9 16 -9 11 -1 -5 -7 -3 -15 3 -11 9 -16 9 -21
0 -6 -8 -10 -7 -16 2 -7 11 -9 11 -9 1 0 -9 -5 -10 -17 -3 -10 5 -26 5 -41 0
-19 -7 -23 -6 -19 4 3 8 -1 14 -9 14 -7 0 -11 -5 -8 -11 3 -6 -2 -2 -10 8 -9
11 -16 15 -16 10 0 -6 -7 -11 -15 -11 -8 0 -15 5 -15 11 0 6 -4 5 -9 -2 -7
-11 -9 -11 -14 1 -4 10 -13 13 -28 10 -16 -5 -20 -3 -14 6 6 10 3 11 -14 2
-16 -9 -21 -9 -21 0 0 8 -4 8 -15 -1 -12 -10 -16 -9 -21 5 -5 13 -9 14 -15 4
-5 -9 -11 -10 -21 -2 -19 15 -57 23 -63 12 -3 -4 -12 -6 -20 -3 -8 4 -13 10
-10 14 3 5 -5 6 -17 2 -15 -4 -19 -2 -13 7 6 10 3 11 -12 2 -14 -7 -23 -7 -31
1 -8 8 -12 8 -12 2 0 -6 -7 -11 -15 -11 -8 0 -15 5 -15 11 0 6 -4 5 -9 -2 -6
-11 -11 -10 -25 3 -12 12 -16 13 -16 3 0 -10 -3 -9 -10 2 -5 8 -10 11 -10 5 0
-5 -4 -4 -9 4 -5 8 -14 10 -22 5 -18 -11 -49 -13 -49 -3 0 4 -11 6 -25 4 -17
-1 -25 3 -25 13 0 11 -3 12 -14 3 -11 -9 -15 -9 -18 0 -3 9 -35 13 -106 13
-56 1 -102 5 -102 9 0 5 -5 5 -10 2 -6 -4 -18 -1 -26 6 -12 10 -13 9 -8 -5 5
-12 2 -15 -10 -10 -9 3 -13 10 -10 15 5 9 -11 14 -31 9 -29 -6 -65 -5 -65 2 0
4 -5 8 -11 8 -5 0 -8 -3 -6 -7 3 -5 -6 -9 -19 -9 -13 -1 -24 2 -24 7 0 5 -12
9 -26 9 -14 0 -23 4 -19 10 4 6 -4 6 -21 0 -20 -8 -29 -8 -34 1 -6 8 -9 7 -13
-2 -5 -12 -6 -12 -6 0 -1 11 -4 11 -17 0 -13 -10 -17 -10 -25 2 -5 8 -9 9 -9
2 0 -8 -9 -9 -29 -3 -16 4 -32 6 -35 3 -3 -3 -11 -1 -18 4 -7 6 -30 9 -50 8
-21 -2 -38 0 -38 4 0 4 -19 8 -42 9 -24 2 -101 7 -173 13 -124 9 -1264 20
-1390 13z m6460 -1334 c3 -5 1 -10 -4 -10 -6 0 -11 5 -11 10 0 6 2 10 4 10 3
0 8 -4 11 -10z m480 -240 c3 -5 1 -10 -4 -10 -6 0 -11 5 -11 10 0 6 2 10 4 10
3 0 8 -4 11 -10z m176 -97 c13 -17 13 -17 -6 -3 -11 8 -22 16 -24 17 -2 2 0 3
6 3 6 0 17 -8 24 -17z m759 -439 c0 -1 -6 -6 -12 -10 -7 -4 -10 -4 -6 1 4 4
-3 16 -15 27 l-22 19 28 -17 c15 -9 27 -18 27 -20z m-15150 -349 c-7 -8 -18
-15 -24 -15 -6 0 -2 7 8 15 25 19 32 19 16 0z m-193 -157 c-3 -7 -5 -2 -5 12
0 14 2 19 5 13 2 -7 2 -19 0 -25z m16248 -118 c10 -11 16 -20 13 -20 -3 0 -15
9 -28 20 -13 11 -19 20 -13 20 5 0 18 -9 28 -20z m-16436 -23 c0 -9 -2 -8 -6
1 -2 6 -10 9 -15 6 -7 -4 -8 -2 -4 5 9 13 26 5 25 -12z m-399 -301 c0 -2 -7
-7 -16 -10 -8 -3 -12 -2 -9 4 6 10 25 14 25 6z m-713 -611 c0 -8 -4 -12 -9 -9
-5 3 -6 10 -3 15 9 13 12 11 12 -6z m18686 -23 c14 -15 15 -19 2 -19 -8 0 -12
4 -9 8 2 4 -4 12 -13 18 -10 6 -13 11 -7 11 6 0 18 -8 27 -18z m-18719 -10 c3
-5 -1 -9 -9 -9 -8 0 -12 4 -9 9 3 4 7 8 9 8 2 0 6 -4 9 -8z m19446 -736 c0 -6
-5 -3 -11 7 -6 9 -15 14 -21 11 -7 -4 -8 -2 -4 5 9 14 36 -3 36 -23z m-20420
-275 c0 -5 -9 -13 -20 -16 -11 -4 -17 -11 -14 -17 5 -7 2 -8 -6 -3 -10 6 -7
12 11 26 28 22 29 22 29 10z m-260 -321 c0 -5 -2 -10 -4 -10 -3 0 -8 5 -11 10
-3 6 -1 10 4 10 6 0 11 -4 11 -10z m-220 -274 c0 -3 -4 -8 -10 -11 -5 -3 -10
-1 -10 4 0 6 5 11 10 11 6 0 10 -2 10 -4z m21735 -106 c3 -5 1 -10 -4 -10 -6
0 -11 5 -11 10 0 6 2 10 4 10 3 0 8 -4 11 -10z m-21928 -125 c0 -8 -4 -12 -9
-9 -5 3 -6 10 -3 15 9 13 12 11 12 -6z m22088 -84 c3 -5 2 -12 -3 -15 -5 -3
-9 1 -9 9 0 17 3 19 12 6z m-22175 -50 c0 -5 -7 -12 -16 -15 -14 -5 -15 -4 -4
9 14 17 20 19 20 6z m22541 -498 c13 -16 12 -17 -3 -4 -17 13 -22 21 -14 21 2
0 10 -8 17 -17z m-23661 -1343 c0 -5 -5 -10 -11 -10 -5 0 -7 5 -4 10 3 6 8 10
11 10 2 0 4 -4 4 -10z m-80 -160 c0 -5 -5 -10 -11 -10 -5 0 -7 5 -4 10 3 6 8
10 11 10 2 0 4 -4 4 -10z m25983 -6135 c-7 -21 -12 -19 -10 4 0 11 5 18 9 15
4 -3 5 -11 1 -19z m-26888 -3505 c3 -5 1 -10 -4 -10 -6 0 -11 5 -11 10 0 6 2
10 4 10 3 0 8 -4 11 -10z m725 -2020 c0 -5 -2 -10 -4 -10 -3 0 -8 5 -11 10 -3
6 -1 10 4 10 6 0 11 -4 11 -10z m23850 -2005 c0 -2 -10 -9 -22 -15 -22 -11
-22 -10 -4 4 21 17 26 19 26 11z m-110 -169 c0 -2 -7 -9 -15 -16 -13 -11 -14
-10 -9 4 5 14 24 23 24 12z m-21780 -952 c0 -8 -19 -13 -24 -6 -3 5 1 9 9 9 8
0 15 -2 15 -3z m40 -40 c0 -8 -19 -13 -24 -6 -3 5 1 9 9 9 8 0 15 -2 15 -3z
m334 -400 c5 -14 4 -15 -9 -4 -17 14 -19 20 -6 20 5 0 12 -7 15 -16z m20206
-87 c0 -2 -9 -12 -19 -21 -14 -13 -21 -14 -27 -5 -4 7 -3 10 3 6 6 -4 16 0 23
8 12 14 20 19 20 12z m-19963 -169 c-3 -8 -6 -5 -6 6 -1 11 2 17 5 13 3 -3 4
-12 1 -19z m19803 8 c0 -3 -4 -8 -10 -11 -5 -3 -10 -1 -10 4 0 6 5 11 10 11 6
0 10 -2 10 -4z m-19760 -46 c0 -5 7 -10 15 -10 8 0 15 -5 15 -10 0 -7 -6 -7
-19 0 -24 12 -36 30 -22 30 6 0 11 -4 11 -10z m19614 -99 c3 -5 -1 -11 -9 -14
-9 -4 -12 -1 -8 9 6 16 10 17 17 5z m-19489 -21 c-3 -5 -1 -10 4 -10 6 0 11
-5 11 -11 0 -8 -5 -8 -15 1 -17 14 -20 30 -4 30 5 0 7 -4 4 -10z m19445 -34
c0 -2 -6 -9 -14 -15 -11 -9 -16 -9 -22 0 -4 8 -3 9 4 5 7 -4 12 -2 12 3 0 6 5
11 10 11 6 0 10 -2 10 -4z m-19270 -146 c0 -5 -2 -10 -4 -10 -3 0 -8 5 -11 10
-3 6 -1 10 4 10 6 0 11 -4 11 -10z m19115 0 c3 -5 1 -10 -4 -10 -6 0 -11 5
-11 10 0 6 2 10 4 10 3 0 8 -4 11 -10z m-406 -391 c-22 -13 -31 -11 -17 5 7 8
17 12 22 9 4 -3 2 -9 -5 -14z m-282 -241 c-3 -8 -6 -5 -6 6 -1 11 2 17 5 13 3
-3 4 -12 1 -19z m-17570 -133 c0 -8 -4 -12 -9 -9 -5 3 -6 10 -3 15 9 13 12 11
12 -6z m233 -195 c0 -5 -2 -10 -4 -10 -3 0 -8 5 -11 10 -3 6 -1 10 4 10 6 0
11 -4 11 -10z m16890 -45 c-7 -9 -15 -13 -17 -11 -7 7 7 26 19 26 6 0 6 -6 -2
-15z m-141 -108 c-2 -1 -11 -8 -21 -15 -12 -10 -18 -10 -24 -1 -4 7 -3 9 4 5
6 -3 13 -2 17 4 3 5 11 10 17 10 6 0 9 -1 7 -3z m-16489 -52 c4 3 11 -2 14
-10 4 -13 2 -14 -14 -5 -11 6 -20 16 -19 23 0 9 2 9 6 -1 2 -6 8 -10 13 -7z
m16131 -208 c-10 -9 -11 -8 -5 6 3 10 9 15 12 12 3 -3 0 -11 -7 -18z m-2589
-1439 c-7 -7 -12 -8 -12 -2 0 14 12 26 19 19 2 -3 -1 -11 -7 -17z m-372 -132
c0 -2 -8 -10 -17 -17 -16 -13 -17 -12 -4 4 13 16 21 21 21 13z"/>
<path d="M9395 26729 c-10 -15 3 -25 16 -12 7 7 7 13 1 17 -6 3 -14 1 -17 -5z"/>
<path d="M9280 26679 c0 -5 5 -7 10 -4 6 3 10 8 10 11 0 2 -4 4 -10 4 -5 0
-10 -5 -10 -11z"/>
<path d="M8940 26560 c-9 -6 -10 -10 -3 -10 6 0 15 5 18 10 8 12 4 12 -15 0z"/>
<path d="M7220 25780 c-8 -5 -10 -10 -5 -10 6 0 17 5 25 10 8 5 11 10 5 10 -5
0 -17 -5 -25 -10z"/>
<path d="M6936 25623 c-6 -14 -5 -15 5 -6 7 7 10 15 7 18 -3 3 -9 -2 -12 -12z"/>
<path d="M6606 25424 c-5 -14 -4 -15 9 -4 17 14 19 20 6 20 -5 0 -12 -7 -15
-16z"/>
<path d="M21456 25027 c3 -10 9 -15 12 -12 3 3 0 11 -7 18 -10 9 -11 8 -5 -6z"/>
<path d="M22656 24092 c-3 -5 1 -9 9 -9 8 0 12 4 9 9 -3 4 -7 8 -9 8 -2 0 -6
-4 -9 -8z"/>
<path d="M4717 24063 c-10 -9 -9 -23 1 -23 5 0 9 7 9 15 0 17 -1 18 -10 8z"/>
<path d="M4700 24019 c0 -5 -5 -7 -12 -3 -7 4 -8 3 -4 -5 6 -9 11 -9 22 0 17
14 18 19 4 19 -5 0 -10 -5 -10 -11z"/>
<path d="M22987 23809 c7 -7 15 -10 18 -7 3 3 -2 9 -12 12 -14 6 -15 5 -6 -5z"/>
<path d="M4430 23801 c0 -7 -4 -10 -8 -7 -5 3 -9 -2 -9 -10 0 -13 2 -13 16 0
8 9 12 19 8 22 -4 4 -7 2 -7 -5z"/>
<path d="M4240 23609 c0 -5 5 -7 10 -4 6 3 10 8 10 11 0 2 -4 4 -10 4 -5 0
-10 -5 -10 -11z"/>
<path d="M4155 23520 c-4 -6 -11 -7 -17 -4 -6 4 -8 2 -4 -4 3 -5 0 -13 -6 -15
-8 -3 -8 -6 -2 -6 6 -1 19 8 29 19 10 11 15 20 12 20 -3 0 -9 -5 -12 -10z"/>
<path d="M3790 23161 c0 -7 -5 -9 -12 -5 -7 4 -10 4 -6 -1 4 -4 3 -15 -4 -24
-7 -9 -1 -6 12 6 13 12 21 26 17 29 -4 4 -7 2 -7 -5z"/>
<path d="M2736 21914 c-5 -14 -4 -15 9 -4 17 14 19 20 6 20 -5 0 -12 -7 -15
-16z"/>
<path d="M25270 21091 c0 -6 4 -13 10 -16 6 -3 7 1 4 9 -7 18 -14 21 -14 7z"/>
<path d="M25375 20930 c-3 -5 -1 -10 4 -10 6 0 11 5 11 10 0 6 -2 10 -4 10 -3
0 -8 -4 -11 -10z"/>
<path d="M25855 20090 c-3 -5 -1 -10 4 -10 6 0 11 5 11 10 0 6 -2 10 -4 10 -3
0 -8 -4 -11 -10z"/>
<path d="M1443 19823 c4 -3 1 -13 -6 -22 -11 -14 -10 -14 5 -2 16 12 16 31 1
31 -4 0 -3 -3 0 -7z"/>
<path d="M26215 19340 c3 -5 8 -10 11 -10 2 0 4 5 4 10 0 6 -5 10 -11 10 -5 0
-7 -4 -4 -10z"/>
<path d="M476 17277 c3 -10 9 -15 12 -12 3 3 0 11 -7 18 -10 9 -11 8 -5 -6z"/>
<path d="M27415 13456 c0 -36 2 -62 5 -60 7 8 8 124 1 124 -4 0 -7 -29 -6 -64z"/>
<path d="M27419 13358 c-4 -11 -4 -106 0 -102 6 6 10 104 4 104 -2 0 -3 -1 -4
-2z"/>
<path d="M1561 7381 c-8 -5 -9 -11 -3 -15 5 -3 12 1 16 9 6 17 6 18 -13 6z"/>
<path d="M1930 6711 c0 -6 5 -11 11 -11 5 0 7 -4 4 -10 -3 -5 -1 -10 4 -10 16
0 13 16 -4 30 -10 9 -15 9 -15 1z"/>
<path d="M2353 6045 c0 -8 4 -12 9 -9 5 3 6 10 3 15 -9 13 -12 11 -12 -6z"/>
<path d="M2726 5512 c-3 -5 1 -9 9 -9 8 0 12 4 9 9 -3 4 -7 8 -9 8 -2 0 -6 -4
-9 -8z"/>
<path d="M3145 4980 c-3 -5 -5 -10 -3 -11 33 -8 38 -7 27 7 -14 17 -16 17 -24
4z"/>
<path d="M4560 3503 c8 -3 22 -11 30 -17 13 -10 13 -9 1 7 -7 9 -21 17 -30 16
-13 0 -14 -1 -1 -6z"/>
<path d="M22816 3462 c-3 -5 1 -9 9 -9 8 0 12 4 9 9 -3 4 -7 8 -9 8 -2 0 -6
-4 -9 -8z"/>
<path d="M22655 3330 c-3 -5 -1 -10 4 -10 6 0 11 5 11 10 0 6 -2 10 -4 10 -3
0 -8 -4 -11 -10z"/>
<path d="M22545 3231 c-3 -5 -2 -12 3 -15 5 -3 9 1 9 9 0 17 -3 19 -12 6z"/>
<path d="M2706 3192 c-3 -5 1 -9 9 -9 8 0 12 4 9 9 -3 4 -7 8 -9 8 -2 0 -6 -4
-9 -8z"/>
<path d="M22463 3168 c-20 -26 -26 -41 -15 -34 12 7 36 46 29 46 -3 0 -9 -6
-14 -12z"/>
<path d="M2855 3110 c-3 -5 -1 -10 4 -10 6 0 11 5 11 10 0 6 -2 10 -4 10 -3 0
-8 -4 -11 -10z"/>
<path d="M2753 3065 c0 -8 4 -12 9 -9 5 3 6 10 3 15 -9 13 -12 11 -12 -6z"/>
<path d="M22345 3059 c-4 -6 -5 -12 -2 -15 2 -3 7 2 10 11 7 17 1 20 -8 4z"/>
<path d="M5266 2913 c-6 -14 -5 -15 5 -6 7 7 10 15 7 18 -3 3 -9 -2 -12 -12z"/>
<path d="M22055 2836 c-16 -13 -28 -26 -25 -29 3 -2 19 8 35 24 36 35 31 38
-10 5z"/>
<path d="M21790 2630 c0 -5 5 -10 10 -10 6 0 10 5 10 10 0 6 -4 10 -10 10 -5
0 -10 -4 -10 -10z"/>
<path d="M21736 2602 c-3 -5 1 -9 9 -9 8 0 12 4 9 9 -3 4 -7 8 -9 8 -2 0 -6
-4 -9 -8z"/>
<path d="M5736 2562 c-3 -5 1 -9 9 -9 8 0 12 4 9 9 -3 4 -7 8 -9 8 -2 0 -6 -4
-9 -8z"/>
<path d="M6180 2261 c0 -6 4 -13 10 -16 6 -3 7 1 4 9 -7 18 -14 21 -14 7z"/>
<path d="M7692 1407 c10 -8 14 -18 10 -22 -4 -5 -1 -5 6 -1 17 10 15 14 -10
26 -21 10 -21 10 -6 -3z"/>
<path d="M17560 555 c-7 -9 -8 -15 -2 -15 5 0 12 7 16 15 3 8 4 15 2 15 -2 0
-9 -7 -16 -15z"/>
</g>
</svg>
